# Created by FreeCAD <http://www.freecadweb.org>
v -0.118950 0.030889 -0.022909
v -0.109160 0.038952 -0.042981
v -0.118310 0.032127 0.024978
v -0.111423 0.020265 -0.029691
v -0.108964 0.024134 -0.046227
v -0.119202 0.023569 0.007154
v -0.107776 0.020129 0.001418
v -0.101514 0.038954 -0.055130
v -0.092127 0.040802 -0.064121
v -0.094668 0.037058 -0.041056
v -0.108482 0.040506 0.033911
v -0.097743 0.026748 -0.022308
v -0.089284 0.019677 -0.063310
v -0.102076 0.024220 -0.002153
v -0.094281 0.025751 0.035676
v -0.094728 0.020634 -0.041346
v -0.097293 0.030909 0.026193
v -0.094061 0.021696 0.044205
v -0.096973 0.027806 -0.072804
v -0.066622 0.021847 -0.096082
v -0.081626 0.028655 -0.059001
v -0.099684 0.021220 0.061419
v -0.086406 0.027424 0.051250
v -0.075691 0.032656 -0.093776
v -0.095176 0.028026 0.077755
v -0.058850 0.019833 0.097340
v -0.070718 0.040856 0.087827
v -0.045075 0.019268 -0.103649
v -0.069640 0.023720 0.074263
v -0.067572 0.029826 0.074324
v -0.034777 0.034393 -0.095995
v -0.060894 0.024793 -0.080777
v -0.048349 0.038884 -0.107672
v -0.016458 0.039937 -0.109416
v -0.052932 0.024518 -0.086394
v -0.035314 0.031761 0.093818
v -0.021638 0.032688 -0.119268
v -0.042845 0.024798 -0.091623
v -0.034135 0.024518 -0.095396
v -0.036173 0.025171 0.094540
v -0.003339 0.020766 -0.116701
v -0.023200 0.024798 -0.098449
v -0.020185 0.019910 -0.000129
v -0.016734 -0.000690 0.009884
v -0.017668 0.019995 0.010687
v -0.007659 0.024666 -0.101055
v -0.010053 0.019960 -0.017346
v -0.010000 0.020000 0.017321
v 0.008633 0.035197 0.119990
v -0.043257 0.036455 0.112542
v -0.004742 -0.000004 0.006490
v -0.008014 0.037222 0.102359
v -0.008100 0.022484 0.102572
v -0.008262 0.019995 -0.004925
v -0.009801 -0.000067 -0.018030
v -0.021749 0.019903 0.113262
v 0.027478 0.034509 -0.098370
v -0.002067 0.019534 0.009665
v 0.000037 -0.000000 0.011000
v -0.006479 -0.000013 -0.005643
v -0.000485 0.019998 -0.020595
v 0.006878 0.019999 -0.005415
v 0.002537 0.020000 0.009294
v 0.008449 0.019309 0.112570
v 0.007692 0.039292 0.104513
v 0.006584 -0.000003 0.004657
v 0.004759 0.000001 -0.007134
v 0.006598 0.020000 0.004979
v 0.001811 0.023121 -0.102212
v 0.009310 0.028082 0.101222
v 0.026000 0.039499 0.113958
v 0.009341 -0.000072 -0.018210
v 0.010000 0.020000 0.017321
v 0.011252 -0.000014 0.016981
v 0.020782 0.036589 -0.117977
v 0.020452 -0.000021 0.000663
v 0.010435 0.019806 -0.017499
v 0.020879 0.019960 0.001531
v 0.025663 0.024900 -0.097814
v 0.034846 0.023246 0.113782
v 0.031660 0.038138 0.099598
v 0.031503 0.022756 -0.113410
v 0.039573 0.019523 -0.101805
v 0.046349 0.029442 -0.111392
v 0.048308 0.025386 -0.088976
v 0.077808 0.021185 -0.089254
v 0.058902 0.039236 -0.089653
v 0.085094 0.039295 -0.079794
v 0.055842 0.024026 0.084940
v 0.056598 0.024732 0.104921
v 0.047559 0.033594 0.110004
v 0.078390 0.033832 -0.062461
v 0.066049 0.037019 -0.099473
v 0.055996 0.020144 0.092527
v 0.059056 0.030773 0.080627
v 0.069204 0.022166 -0.077451
v 0.079737 0.029307 -0.090445
v 0.073392 0.024592 0.069656
v 0.074952 0.024164 0.091975
v 0.099538 0.022635 0.064341
v 0.089593 0.025423 0.046963
v 0.082884 0.022160 -0.058961
v 0.085402 0.037077 0.084633
v 0.093190 0.025248 -0.040378
v 0.099330 0.024551 0.020887
v 0.093651 0.035731 -0.040025
v 0.086763 0.037755 0.055228
v 0.102675 0.021284 -0.060801
v 0.098041 0.020828 -0.042711
v 0.101246 0.024049 0.007629
v 0.100129 0.024986 -0.011504
v 0.100166 0.034364 0.013909
v 0.106011 0.019283 0.039494
v 0.111685 0.019552 -0.007913
v 0.110969 0.040582 0.013496
v 0.105385 0.020891 0.044521
v 0.112136 0.039654 -0.034598
v 0.122247 0.027121 -0.003653
v 0.114154 0.032396 0.042246
vn -0.492174 0.839947 -0.228590
vn 0.293721 0.772697 -0.562733
vn 0.499779 0.816074 -0.290247
vn 0.090767 0.960276 0.263876
vn 0.013436 0.917548 0.397398
vn -0.083401 0.996333 0.019110
vn 0.053292 0.998254 0.025482
vn 0.056495 0.981928 -0.180628
vn 0.438630 0.875946 0.200805
vn -0.547378 0.746368 0.378566
vn -0.647499 0.762004 -0.009698
vn -0.057930 0.818925 -0.570969
vn 0.828598 0.025255 0.559274
vn -0.144029 -0.144550 0.978959
vn -0.884467 -0.290533 0.365113
vn -0.418026 -0.159996 -0.894235
vn -0.433796 -0.249915 -0.865658
vn 0.043510 -0.146056 -0.988319
vn 0.926570 -0.234608 0.293983
vn -0.418600 -0.791512 0.445289
vn 0.013012 -0.995656 0.092196
vn 0.025380 -0.999503 -0.018704
vn -0.436519 -0.898573 0.044932
vn -0.618615 -0.535742 -0.574714
vn 0.166432 -0.908296 -0.383795
vn 0.849558 -0.283321 -0.444950
vn 0.452454 -0.889968 -0.056937
vn 0.490755 -0.680022 0.544729
vn 0.017445 -0.528723 0.848615
vn 0.614280 -0.784859 0.081588
vn 0.764156 -0.381963 -0.519779
vn -0.797091 -0.130051 0.589689
vn -0.989677 -0.016918 -0.142315
vn -0.936412 0.019864 -0.350341
vn -0.801631 0.194802 -0.565190
vn 0.517567 -0.159672 -0.840613
vn 0.762329 -0.252289 -0.595990
vn 0.874205 -0.252221 -0.414910
vn 0.553520 -0.243096 0.796568
vn 0.459803 0.017955 0.887839
vn 0.398349 0.081376 0.913617
vn 0.266371 0.075668 0.960896
vn 0.164700 -0.053151 0.984911
vn 0.044759 -0.408508 0.911657
vn -0.187195 0.091891 0.978015
vn -0.363136 0.121990 0.923716
vn -0.971653 0.034877 0.233825
vn -0.989568 -0.134683 0.051152
vn -0.521958 -0.438249 0.731777
vn 0.035953 -0.380467 0.924095
vn 0.563644 -0.532894 0.631134
vn 0.684611 -0.726754 0.056008
vn 0.506938 -0.795919 -0.330949
vn 0.301391 -0.015576 -0.953373
vn -0.334251 -0.389461 -0.858252
vn -0.643392 -0.165656 -0.747399
vn -0.946204 -0.130102 -0.296262
vn -0.470055 -0.533427 0.703210
vn 0.734843 -0.605009 -0.306544
vn 0.028316 -0.983457 -0.178915
vn 0.260122 -0.138713 -0.955560
vn -0.229541 -0.868316 -0.439704
vn 0.931225 -0.100278 -0.350377
vn -0.644071 -0.170005 -0.745836
vn -0.241675 -0.758749 -0.604891
vn -0.180067 -0.842554 0.507621
vn -0.341116 -0.839602 -0.422739
vn -0.420389 -0.907125 -0.019911
vn -0.627736 -0.765006 0.143924
vn -0.435270 -0.669258 0.602191
vn -0.075433 -0.712705 0.697396
vn 0.083411 -0.837575 0.539918
vn 0.134557 -0.907133 0.398753
vn 0.140603 -0.909148 0.392022
vn 0.218876 -0.901277 0.373888
vn 0.237255 -0.894021 0.380049
vn 0.222181 -0.901486 0.371427
vn 0.251734 -0.909136 0.331815
vn 0.593802 -0.804166 0.026774
vn 0.838845 -0.482953 -0.251189
vn 0.153499 -0.883834 -0.441900
vn -0.018844 -0.966141 -0.257324
vn -0.466709 -0.806590 -0.362760
vn -0.394030 -0.911668 -0.116630
vn -0.536988 -0.842352 -0.045675
vn -0.470452 -0.880294 -0.061300
vn 0.438627 -0.894171 0.089802
vn -0.147290 -0.987481 0.056454
vn -0.056627 -0.997529 0.041586
vn -0.095135 -0.976663 0.192556
vn 0.077130 -0.988086 0.133179
vn 0.063270 -0.996245 0.059107
vn 0.098791 -0.995097 0.004764
vn -0.007492 -0.999520 -0.030077
vn -0.025032 -0.964003 -0.264709
vn 0.130017 -0.954414 0.268679
vn 0.084218 -0.943217 -0.321325
vn -0.182193 -0.964753 -0.189888
vn -0.263333 -0.963247 0.053020
vn 0.168657 -0.970050 0.174810
vn 0.160209 -0.916438 -0.366707
vn -0.275181 -0.960983 0.028061
vn 0.198152 -0.922307 0.331790
vn 0.564458 -0.823063 0.062889
vn -0.435196 -0.827082 -0.355724
vn -0.486782 -0.818084 -0.306239
vn 0.205002 -0.921091 0.331007
vn 0.208156 -0.948770 0.237711
vn 0.773905 -0.568845 0.278362
vn 0.866067 -0.434687 0.246932
vn 0.611624 -0.780435 -0.129760
vn 0.360844 -0.581074 -0.729482
vn -0.291652 -0.920845 -0.258811
vn -0.857545 -0.457789 -0.234620
vn -0.846716 -0.515262 -0.132576
vn 0.726388 -0.265494 -0.633935
vn 0.203750 -0.160920 -0.965707
vn 0.104776 -0.237628 -0.965689
vn -0.234622 -0.534917 -0.811675
vn -0.347225 -0.243649 -0.905577
vn -0.610948 -0.362488 -0.703807
vn -0.912938 0.049018 -0.405143
vn -0.827177 -0.489300 0.276340
vn -0.503626 -0.276177 0.818588
vn -0.356027 -0.426443 0.831499
vn 0.012437 -0.423246 0.905930
vn 0.021550 -0.423267 0.905749
vn 0.576368 -0.001807 0.817189
vn 0.724072 -0.212987 0.656015
vn 0.738012 -0.643195 0.204054
vn 0.441128 -0.231927 -0.866958
vn 0.381708 -0.135081 0.914359
vn 0.946566 -0.029365 -0.321171
vn 0.800947 0.179524 -0.571188
vn 0.548573 -0.126051 -0.826546
vn -0.909091 0.092722 -0.406148
vn -0.996687 0.080552 0.011235
vn 0.549567 0.083810 0.831235
vn 0.250024 0.045970 0.967148
vn 0.822425 0.281554 -0.494312
vn 0.336892 0.436461 -0.834270
vn -0.757139 0.446931 -0.476438
vn 0.647228 0.365957 -0.668708
vn 0.249010 0.290269 0.923979
vn 0.770520 0.637384 0.006394
vn -0.407791 0.797287 -0.445017
vn -0.635578 0.578560 -0.511183
vn -0.619040 0.582675 -0.526573
vn -0.642872 0.765892 -0.011208
vn -0.775303 0.505176 0.379082
vn -0.538931 0.489015 0.685869
vn -0.048302 0.873701 0.484059
vn 0.312679 0.759356 0.570623
vn 0.809826 0.581737 0.075923
vn -0.045155 0.996821 0.065647
vn 0.063817 0.982425 -0.175411
vn 0.053402 0.986696 -0.153557
vn -0.058330 0.817277 -0.573285
vn -0.427489 0.863094 -0.268927
vn -0.200843 0.979335 -0.023765
vn 0.000946 0.999963 -0.008493
vn 0.105387 0.979682 0.170635
vn 0.132348 0.990977 -0.021199
vn 0.022216 0.988245 0.151257
vn 0.031116 0.996132 -0.082177
vn -0.543286 0.658870 0.520319
vn -0.092920 0.964025 -0.249042
vn -0.494819 0.865146 0.081706
vn -0.227347 0.971116 0.072436
vn -0.253400 -0.091265 0.963047
vn -0.010462 0.929145 0.369567
vn 0.684367 0.723203 0.092839
vn 0.594670 0.684953 -0.420959
vn 0.269081 0.963005 0.014740
vn -0.687463 0.127041 -0.715021
vn 0.534436 0.675922 0.507453
vn -0.951580 -0.287937 0.107647
vn -0.233027 0.908253 0.347527
vn 0.964720 -0.262926 0.013619
vn 0.231963 0.291730 -0.927948
vn -0.182682 0.252625 -0.950162
vn -0.329381 0.616637 -0.715030
vn 0.987355 -0.006402 0.158397
vn 0.870386 -0.039915 0.490749
vn -0.009375 -0.122553 -0.992418
vn -0.321585 0.028274 -0.946458
vn 0.273029 0.019353 -0.961811
vn 0.822785 0.041859 0.566809
vn -0.653093 -0.058818 0.754990
vn -0.972513 -0.052722 0.226802
vn 0.051497 -0.998628 -0.009490
vn -0.000215 -0.999979 0.006528
vn 0.001792 -0.999991 0.003847
vn -0.001397 -0.999999 -0.000344
vn -0.003901 -0.999980 0.005003
vn 0.046919 -0.994810 -0.090284
vn 0.055109 -0.998455 -0.007097
vn -0.000963 -0.999999 -0.000508
vn -0.001341 -0.999999 -0.000148
vn 0.044096 -0.997972 -0.045910
vn -0.004648 0.999987 -0.002132
vn 0.002599 0.999996 -0.000718
vn 0.002762 0.999996 -0.000041
vn 0.009281 0.999870 -0.013183
vn 0.030755 0.999355 0.018522
vn 0.020322 0.999744 -0.009931
vn -0.007790 0.999968 -0.001679
vn -0.009393 0.999940 -0.005665
vn 0.027407 0.999098 -0.032433
vn -0.000253 1.000000 0.000049
vn -0.093407 0.991833 0.086846
vn 0.000003 1.000000 -0.000003
vn 0.918000 -0.062024 -0.391701
vn 0.032211 -0.088993 0.995511
vn -0.999637 0.001140 -0.026927
vn -0.728104 0.011534 -0.685369
vn -0.984106 0.091200 0.152374
vn 0.131535 -0.023815 0.991026
vn 0.985623 0.092901 -0.141129
vn 0.686143 0.024223 -0.727063
vn -0.072552 -0.075779 -0.994482
vn -0.695558 0.025685 -0.718011
vn 0.989487 0.144507 -0.005784
vn 0.996866 -0.077539 0.015667
vn -0.999737 0.006142 0.022101
vn -0.329952 -0.908119 0.257781
vn -0.098185 0.971117 -0.217467
vn -0.251349 -0.967687 -0.020124
vn 0.129838 0.976364 0.172790
vn -0.483948 -0.013715 0.874989
vn 0.501793 -0.012938 -0.864891
vn 0.508552 0.078252 -0.857468
vn 0.162488 -0.959479 -0.230213
vn -0.177941 0.983315 0.037797
vn -0.443041 -0.409695 -0.797411
vn 0.494801 0.086634 0.864677
vn 0.503577 -0.051173 0.862433
vn 0.997927 0.062156 0.016697
vn -0.952128 0.305451 0.012318
vn -0.026375 -0.979983 0.197328
vn 0.077639 0.980217 -0.182064
vn -0.129979 0.972375 -0.193888
vn -0.201687 -0.976808 -0.071887
vn 0.184476 0.976502 0.111410
vn -0.454947 0.326473 0.828516
vn 0.501383 0.035824 -0.864484
vn 0.197939 -0.973575 -0.113897
vn -0.165603 0.982699 0.082941
vn -0.497283 0.058302 -0.865627
vn 0.497234 -0.048238 0.866275
f 115//1 112//1 107//1
f 27//2 36//2 30//2
f 11//3 30//3 17//3
f 33//4 21//4 31//4
f 34//5 31//5 57//5
f 103//6 115//6 107//6
f 103//7 107//7 71//7
f 93//8 34//8 87//8
f 119//9 115//9 103//9
f 25//10 27//10 11//10
f 1//11 11//11 2//11
f 37//12 33//12 75//12
f 100//13 119//13 103//13
f 56//14 49//14 50//14
f 22//15 25//15 3//15
f 20//16 24//16 33//16
f 28//17 33//17 37//17
f 41//18 37//18 75//18
f 116//19 118//19 100//19
f 26//20 25//20 22//20
f 96//21 83//21 86//21
f 109//22 86//22 108//22
f 111//23 108//23 114//23
f 98//24 113//24 94//24
f 40//25 56//25 26//25
f 30//26 26//26 29//26
f 12//27 7//27 4//27
f 21//28 13//28 28//28
f 46//29 28//29 69//29
f 17//30 7//30 14//30
f 23//31 26//31 18//31
f 92//32 96//32 102//32
f 112//33 110//33 105//33
f 107//34 105//34 101//34
f 107//35 101//35 98//35
f 36//36 40//36 30//36
f 30//37 29//37 23//37
f 17//38 23//38 15//38
f 31//39 32//39 35//39
f 31//40 35//40 38//40
f 31//41 38//41 39//41
f 31//42 39//42 42//42
f 31//43 42//43 46//43
f 57//44 46//44 69//44
f 57//45 69//45 79//45
f 57//46 79//46 85//46
f 106//47 104//47 111//47
f 110//48 112//48 111//48
f 85//49 92//49 57//49
f 46//50 57//50 31//50
f 32//51 31//51 21//51
f 14//52 12//52 17//52
f 23//53 17//53 30//53
f 53//54 36//54 52//54
f 89//55 70//55 95//55
f 98//56 95//56 107//56
f 105//57 107//57 112//57
f 96//58 92//58 85//58
f 18//59 15//59 23//59
f 26//60 23//60 29//60
f 40//61 36//61 53//61
f 94//62 70//62 89//62
f 7//63 17//63 15//63
f 89//64 95//64 98//64
f 64//65 70//65 94//65
f 83//66 85//66 79//66
f 94//67 89//67 98//67
f 114//68 110//68 111//68
f 109//69 111//69 104//69
f 96//70 85//70 83//70
f 83//71 79//71 69//71
f 28//72 46//72 42//72
f 28//73 42//73 39//73
f 28//74 39//74 38//74
f 28//75 38//75 35//75
f 28//76 35//76 32//76
f 28//77 32//77 21//77
f 4//78 16//78 12//78
f 7//79 12//79 14//79
f 7//80 15//80 18//80
f 26//81 30//81 40//81
f 56//82 40//82 53//82
f 113//83 98//83 101//83
f 113//84 101//84 105//84
f 113//85 105//85 110//85
f 113//86 110//86 114//86
f 108//87 111//87 109//87
f 86//88 109//88 102//88
f 86//89 102//89 96//89
f 41//90 83//90 69//90
f 41//91 69//91 28//91
f 13//92 16//92 4//92
f 22//93 7//93 18//93
f 22//94 18//94 26//94
f 56//95 53//95 64//95
f 80//96 64//96 94//96
f 82//97 83//97 41//97
f 20//98 28//98 13//98
f 6//99 7//99 22//99
f 100//100 94//100 113//100
f 86//101 83//101 82//101
f 6//102 4//102 7//102
f 90//103 80//103 94//103
f 118//104 113//104 114//104
f 19//105 20//105 13//105
f 19//106 13//106 4//106
f 99//107 90//107 94//107
f 99//108 94//108 100//108
f 100//109 113//109 116//109
f 118//110 116//110 113//110
f 118//111 114//111 108//111
f 84//112 86//112 82//112
f 19//113 4//113 5//113
f 1//114 5//114 4//114
f 1//115 4//115 6//115
f 108//116 86//116 97//116
f 75//117 84//117 82//117
f 75//118 82//118 41//118
f 37//119 41//119 28//119
f 33//120 28//120 20//120
f 24//121 20//121 19//121
f 19//122 5//122 1//122
f 3//123 6//123 22//123
f 50//124 25//124 26//124
f 50//125 26//125 56//125
f 49//126 56//126 64//126
f 49//127 64//127 80//127
f 103//128 90//128 99//128
f 103//129 99//129 100//129
f 119//130 100//130 118//130
f 93//131 97//131 86//131
f 91//132 80//132 90//132
f 117//133 118//133 108//133
f 88//134 108//134 97//134
f 93//135 86//135 84//135
f 2//136 19//136 1//136
f 1//137 6//137 3//137
f 91//138 90//138 103//138
f 49//139 80//139 91//139
f 88//140 117//140 108//140
f 93//141 84//141 75//141
f 8//142 19//142 2//142
f 88//143 97//143 93//143
f 71//144 49//144 91//144
f 115//145 118//145 117//145
f 9//146 33//146 24//146
f 9//147 24//147 19//147
f 9//148 19//148 8//148
f 11//149 1//149 3//149
f 11//150 3//150 25//150
f 27//151 25//151 50//151
f 50//152 49//152 71//152
f 71//153 91//153 103//153
f 115//154 119//154 118//154
f 65//155 50//155 71//155
f 87//156 88//156 93//156
f 34//157 93//157 75//157
f 34//158 75//158 33//158
f 9//159 8//159 2//159
f 115//160 117//160 106//160
f 87//161 117//161 88//161
f 10//162 9//162 2//162
f 10//163 2//163 11//163
f 52//164 27//164 50//164
f 81//165 65//165 71//165
f 92//166 117//166 87//166
f 52//167 50//167 65//167
f 112//168 115//168 106//168
f 106//169 117//169 92//169
f 57//170 87//170 34//170
f 31//171 34//171 33//171
f 17//172 10//172 11//172
f 30//173 11//173 27//173
f 95//174 81//174 71//174
f 95//175 71//175 107//175
f 21//176 33//176 9//176
f 111//177 112//177 106//177
f 92//178 87//178 57//178
f 12//179 10//179 17//179
f 36//180 27//180 52//180
f 70//181 65//181 81//181
f 70//182 81//182 95//182
f 16//183 10//183 12//183
f 78//184 74//184 76//184
f 61//185 72//185 55//185
f 55//186 47//186 61//186
f 72//187 61//187 77//187
f 74//188 78//188 73//188
f 44//189 48//189 45//189
f 44//190 45//190 43//190
f 44//191 55//191 60//191
f 55//192 72//192 67//192
f 67//193 60//193 55//193
f 66//194 76//194 74//194
f 67//195 72//195 76//195
f 74//196 44//196 59//196
f 60//197 51//197 44//197
f 66//198 74//198 59//198
f 66//199 67//199 76//199
f 59//200 44//200 51//200
f 61//201 47//201 54//201
f 68//202 73//202 78//202
f 78//203 62//203 68//203
f 78//204 77//204 62//204
f 58//205 54//205 45//205
f 62//206 77//206 61//206
f 54//207 47//207 43//207
f 43//208 45//208 54//208
f 45//209 48//209 58//209
f 54//210 62//210 61//210
f 58//211 73//211 63//211
f 63//212 73//212 68//212
f 54//213 58//213 51//213
f 62//214 54//214 67//214
f 68//215 62//215 66//215
f 63//216 68//216 66//216
f 67//217 66//217 62//217
f 60//218 67//218 54//218
f 51//219 60//219 54//219
f 58//220 59//220 51//220
f 59//221 58//221 63//221
f 63//222 66//222 59//222
f 65//223 70//223 73//223
f 70//224 64//224 73//224
f 53//225 52//225 48//225
f 64//226 53//226 44//226
f 52//227 65//227 73//227
f 16//228 13//228 44//228
f 9//229 10//229 43//229
f 10//230 16//230 43//230
f 13//231 21//231 47//231
f 21//232 9//232 47//232
f 102//233 109//233 72//233
f 106//234 92//234 77//234
f 92//235 102//235 77//235
f 109//236 104//236 78//236
f 104//237 106//237 78//237
f 74//238 73//238 64//238
f 48//239 44//239 53//239
f 44//240 74//240 64//240
f 73//241 58//241 52//241
f 58//242 48//242 52//242
f 55//243 44//243 13//243
f 43//244 47//244 9//244
f 44//245 43//245 16//245
f 47//246 55//246 13//246
f 76//247 72//247 109//247
f 77//248 78//248 106//248
f 72//249 77//249 102//249
f 78//250 76//250 109//250
