# Created by FreeCAD <http://www.freecadweb.org>
v -0.091559 0.079315 0.000889
v -0.071605 0.092986 0.009046
v -0.114948 0.037523 0.002127
v -0.080972 0.083692 -0.009332
v -0.106809 0.053405 -0.006431
v -0.099951 0.037945 -0.008643
v -0.047724 0.101594 0.010802
v -0.061457 0.082890 0.007058
v -0.110904 0.024873 0.010506
v -0.073494 0.068191 -0.003252
v -0.045667 0.099470 -0.010323
v -0.061364 0.083171 -0.009366
v -0.047579 0.111537 -0.002194
v 0.005634 0.114258 -0.011179
v -0.041190 0.091909 -0.001345
v -0.117038 -0.003348 -0.008780
v -0.098400 0.021892 0.000390
v -0.018662 0.119058 0.002656
v -0.121302 -0.019750 -0.001974
v -0.098677 -0.055651 -0.010249
v -0.105157 -0.040701 0.010856
v 0.017880 0.100523 0.004393
v 0.009900 0.101791 -0.005245
v 0.011965 0.117421 0.008884
v 0.040455 0.102986 0.009937
v -0.093129 -0.042884 -0.001233
v 0.040895 0.114108 0.002688
v 0.067127 0.096446 -0.009453
v -0.017416 0.010204 -0.010090
v -0.019434 -0.000193 -0.030690
v -0.018513 -0.008409 -0.010245
v -0.052519 -0.108231 0.005197
v -0.093733 -0.075836 0.006455
v -0.058120 -0.084638 0.007222
v -0.058301 -0.084780 -0.007516
v -0.004693 0.008396 -0.010005
v -0.075466 -0.087213 -0.010097
v 0.072982 0.071452 0.004509
v -0.001396 -0.010256 -0.029946
v -0.005659 0.006226 -0.029948
v 0.000856 0.021174 -0.010030
v 0.008664 0.001251 -0.010001
v -0.005659 -0.009055 -0.010346
v -0.048968 -0.101713 -0.010691
v 0.007688 0.003799 -0.029999
v 0.003351 -0.012800 -0.010270
v 0.058278 0.084565 -0.006382
v -0.042548 -0.092316 -0.001918
v -0.034462 -0.111691 0.009499
v 0.008333 0.015580 -0.030746
v 0.001254 -0.020332 -0.030014
v 0.076986 0.091780 0.006589
v 0.017380 -0.010800 -0.030021
v 0.017786 0.009937 -0.010194
v 0.017316 -0.011765 -0.010040
v -0.044781 -0.096519 0.009954
v 0.085174 0.068379 -0.010477
v 0.086324 0.052901 -0.004614
v 0.114779 0.034575 -0.008376
v 0.095837 0.048191 0.009236
v 0.113591 0.026557 0.009295
v -0.017377 -0.119788 -0.003555
v 0.099118 0.014898 0.003832
v 0.101304 0.065719 0.005373
v 0.006173 -0.105849 -0.009439
v 0.012867 -0.099080 -0.001855
v 0.103329 0.010827 -0.006757
v 0.008605 -0.119059 -0.005523
v 0.054562 -0.105249 -0.007390
v 0.031644 -0.115995 0.007077
v 0.099546 -0.011731 0.004349
v 0.047525 -0.091210 0.007755
v 0.119320 0.001318 -0.008716
v 0.070507 -0.074715 -0.005245
v 0.105462 -0.012542 -0.008149
v 0.072061 -0.087208 -0.010717
v 0.100679 -0.048990 -0.010448
v 0.080418 -0.067625 0.009493
v 0.114412 -0.026105 0.009654
v 0.107696 -0.057960 -0.002879
v 0.077737 -0.093663 0.002396
vn 0.633250 0.032152 0.773279
vn -0.053341 -0.273887 0.960282
vn -0.187051 -0.350880 0.917548
vn -0.061327 0.011994 0.998046
vn 0.033403 -0.048710 0.998254
vn 0.171378 0.160779 0.971998
vn 0.229360 -0.277864 0.932837
vn -0.663366 -0.054155 0.746333
vn -0.541675 0.329108 0.773483
vn 0.235332 0.523465 0.818904
vn 0.438040 -0.898567 0.026444
vn -0.614199 -0.775790 -0.144600
vn -0.948531 0.126035 -0.290525
vn 0.089462 0.979111 -0.182586
vn 0.074220 0.981208 -0.178107
vn 0.530696 0.843705 -0.080772
vn -0.577376 -0.180331 -0.796315
vn -0.004447 -0.065900 -0.997816
vn -0.044960 0.004063 -0.998981
vn -0.118535 0.078001 -0.989881
vn 0.485796 0.353414 -0.799438
vn 0.381725 -0.172050 -0.908121
vn 0.190865 -0.701863 -0.686265
vn 0.989774 0.015910 -0.141752
vn -0.430115 0.846511 0.313720
vn 0.794568 0.079740 -0.601916
vn -0.328565 -0.932606 0.149300
vn -0.735777 -0.639201 0.223728
vn -0.818768 0.475364 0.321945
vn -0.817934 -0.372756 -0.438220
vn -0.427016 -0.810975 -0.399971
vn 0.164079 -0.951287 -0.261020
vn 0.565247 -0.362361 -0.741074
vn 0.767748 0.640562 -0.015601
vn 0.019936 0.737082 -0.675509
vn -0.582743 0.812656 0.000941
vn -0.907444 -0.355334 -0.224237
vn 0.086727 0.703975 -0.704910
vn 0.066298 0.656343 -0.751544
vn -0.345764 -0.354742 -0.868680
vn -0.245775 0.093118 -0.964844
vn -0.761940 -0.278158 -0.584872
vn -0.188981 -0.474016 -0.859997
vn 0.013342 -0.426013 -0.904619
vn -0.011429 -0.369910 -0.928997
vn 0.111457 0.237366 -0.965005
vn -0.126585 0.384731 -0.914308
vn -0.419310 0.319963 -0.849590
vn -0.217280 0.038254 -0.975359
vn -0.206926 -0.097530 -0.973483
vn -0.037495 -0.223838 -0.973905
vn -0.003190 -0.055552 -0.998451
vn -0.032353 0.016703 -0.999337
vn 0.110684 0.241760 -0.964003
vn -0.007356 -0.378311 -0.925650
vn -0.160501 0.069680 -0.984573
vn 0.044005 -0.222322 -0.973980
vn 0.375250 0.273606 -0.885622
vn -0.180851 0.060237 -0.981664
vn -0.063959 -0.294446 -0.953525
vn 0.457389 -0.336704 -0.823059
vn -0.167336 0.532454 -0.829754
vn -0.252208 0.512840 -0.820601
vn 0.044085 -0.276478 -0.960008
vn 0.639009 -0.684537 -0.350821
vn 0.594558 -0.193437 -0.780438
vn 0.687655 0.520824 -0.505839
vn -0.688976 0.541590 -0.481655
vn 0.704444 0.668482 -0.238516
vn 0.238440 0.765194 -0.598017
vn -0.131358 0.842229 -0.522873
vn -0.580899 0.766723 -0.273301
vn -0.854535 0.174270 -0.489285
vn -0.835939 -0.456655 -0.304421
vn -0.725390 -0.535529 -0.432455
vn -0.442206 -0.790770 -0.423245
vn -0.376364 -0.824578 -0.422399
vn 0.267707 -0.926571 -0.264196
vn 0.542856 -0.549370 -0.635217
vn 0.980338 -0.195129 -0.029371
vn 0.983031 0.132931 0.126408
vn -0.585449 0.806745 0.080082
vn -0.868785 0.488602 0.080503
vn 0.040212 -0.985294 0.166071
vn 0.959406 0.016876 0.281522
vn 0.928109 0.311590 0.203777
vn -0.241647 -0.934027 0.263059
vn 0.492934 -0.406571 0.769231
vn -0.130633 0.589283 0.797296
vn -0.294832 0.760495 0.578551
vn -0.314605 0.755576 0.574567
vn -0.551127 0.331128 0.765906
vn -0.860991 0.059350 0.505146
vn -0.809689 -0.324516 0.488972
vn -0.283855 -0.395058 0.873702
vn -0.038780 -0.871113 0.489549
vn 0.476488 -0.276526 0.834561
vn -0.116568 -0.108885 0.987196
vn 0.186444 0.155652 0.970057
vn 0.107556 0.054030 0.992730
vn 0.236164 0.525725 0.817215
vn -0.194913 0.155823 0.968364
vn 0.005080 0.006896 0.999963
vn -0.001829 -0.194985 0.980804
vn 0.136491 -0.057554 0.988968
vn -0.056412 -0.142129 0.988239
vn -0.730612 -0.178956 0.658925
vn 0.046936 0.273617 0.960693
vn -0.324788 0.013134 0.945696
vn -0.700970 -0.707310 -0.091404
vn -0.193839 -0.314794 0.929156
vn 0.518323 -0.396735 0.757590
vn 0.713288 0.066238 0.697734
vn 0.204140 0.109663 0.972780
vn -0.240224 0.967913 0.073742
vn 0.209102 -0.706682 0.675927
vn -0.866859 0.257366 -0.426988
vn -0.375564 -0.184437 0.908259
vn 0.830344 -0.470197 -0.299071
vn 0.612133 0.614121 0.498146
vn 0.113080 0.929753 0.350389
vn 0.775865 -0.630866 -0.006400
vn 0.508430 -0.860178 -0.039915
vn 0.552651 0.833023 -0.025487
vn 0.063519 -0.934666 0.349806
vn -0.995975 0.058111 0.068238
vn 0.261637 -0.463612 -0.846528
vn -0.015177 -0.062458 -0.997932
vn -0.003845 0.005771 -0.999976
vn -0.089830 -0.058138 -0.994259
vn 0.052711 0.020635 -0.998397
vn -0.004047 -0.001179 -0.999991
vn 0.048076 0.012300 -0.998768
vn -0.015500 -0.013299 0.999791
vn 0.014702 0.006777 0.999869
vn 0.006822 -0.019901 0.999779
vn 0.014406 0.007088 0.999871
vn -0.006033 0.004556 0.999971
vn -0.007800 -0.007879 0.999938
vn 0.000597 0.001677 0.999998
vn 0.997619 -0.054378 -0.042413
vn -0.469789 -0.878283 -0.088976
vn -0.904401 0.336934 0.261792
vn 0.383472 0.923162 0.026851
vn -0.834606 0.539851 0.109517
vn -0.177272 -0.977425 0.114955
vn 0.950198 0.245795 0.191593
vn 0.865311 -0.501022 -0.014608
vn 0.858727 -0.504889 -0.087607
vn -0.886745 0.462214 0.006437
vn -0.414646 -0.058267 -0.908115
vn 0.006657 0.231197 0.972884
vn -0.207598 0.143112 -0.967689
vn 0.026044 -0.214562 0.976363
vn -0.856602 -0.515796 -0.013676
vn 0.859684 0.510824 0.001507
vn 0.861275 0.504456 0.061078
vn 0.247822 0.080115 -0.965487
vn -0.170892 0.016375 0.985154
vn 0.004632 0.934010 -0.357218
vn -0.010088 -0.998149 0.059976
vn 0.857194 -0.504883 0.101545
vn -0.861377 0.456714 0.222357
vn -0.121499 -0.157706 -0.979983
vn 0.067178 0.181413 0.981110
vn 0.018412 0.214216 0.976613
vn -0.100651 0.173705 -0.979641
vn 0.109056 -0.187015 0.976285
vn -0.808240 -0.490043 0.326505
vn 0.846952 0.503889 0.169610
vn 0.241666 0.056253 -0.968728
vn -0.172359 0.010722 0.984976
vn -0.021004 0.961595 0.273669
vn -0.007771 -0.998804 -0.048263
f 9//1 26//1 17//1
f 24//2 15//2 22//2
f 25//3 22//3 38//3
f 70//4 78//4 72//4
f 70//5 72//5 49//5
f 64//6 25//6 60//6
f 81//7 78//7 70//7
f 19//8 21//8 9//8
f 1//9 9//9 2//9
f 27//10 24//10 52//10
f 69//11 81//11 70//11
f 37//12 32//12 33//12
f 16//13 19//13 3//13
f 14//14 18//14 24//14
f 14//15 24//15 27//15
f 28//16 27//16 52//16
f 20//17 19//17 16//17
f 67//18 57//18 59//18
f 75//19 59//19 73//19
f 75//20 73//20 77//20
f 26//21 37//21 20//21
f 10//22 6//22 4//22
f 15//23 11//23 14//23
f 17//24 20//24 6//24
f 72//25 74//25 65//25
f 26//26 20//26 17//26
f 22//27 23//27 47//27
f 38//28 47//28 58//28
f 74//29 78//29 75//29
f 58//30 63//30 38//30
f 47//31 38//31 22//31
f 23//32 22//32 15//32
f 6//33 10//33 17//33
f 35//34 26//34 34//34
f 65//35 66//35 72//35
f 74//36 72//36 78//36
f 67//37 63//37 58//37
f 65//38 48//38 66//38
f 44//39 48//39 65//39
f 57//40 58//40 47//40
f 77//41 74//41 75//41
f 67//42 58//42 57//42
f 14//43 47//43 23//43
f 14//44 23//44 15//44
f 4//45 12//45 10//45
f 37//46 26//46 35//46
f 76//47 65//47 74//47
f 76//48 74//48 77//48
f 59//49 75//49 67//49
f 28//50 57//50 47//50
f 28//51 47//51 14//51
f 11//52 12//52 4//52
f 16//53 6//53 20//53
f 37//54 35//54 44//54
f 62//55 44//55 65//55
f 5//56 6//56 16//56
f 69//57 65//57 76//57
f 59//58 57//58 28//58
f 5//59 4//59 6//59
f 68//60 62//60 65//60
f 80//61 76//61 77//61
f 13//62 14//62 11//62
f 13//63 11//63 4//63
f 68//64 65//64 69//64
f 80//65 69//65 76//65
f 80//66 77//66 73//66
f 64//67 59//67 28//67
f 1//68 4//68 5//68
f 52//69 64//69 28//69
f 27//70 28//70 14//70
f 18//71 14//71 13//71
f 13//72 4//72 1//72
f 3//73 5//73 16//73
f 33//74 19//74 20//74
f 33//75 20//75 37//75
f 32//76 37//76 44//76
f 32//77 44//77 62//77
f 70//78 68//78 69//78
f 81//79 69//79 80//79
f 79//80 80//80 73//80
f 61//81 73//81 59//81
f 2//82 13//82 1//82
f 1//83 5//83 3//83
f 62//84 68//84 70//84
f 61//85 79//85 73//85
f 61//86 59//86 64//86
f 49//87 32//87 62//87
f 78//88 80//88 79//88
f 7//89 24//89 18//89
f 7//90 18//90 13//90
f 7//91 13//91 2//91
f 9//92 1//92 3//92
f 9//93 3//93 19//93
f 21//94 19//94 33//94
f 33//95 32//95 49//95
f 49//96 62//96 70//96
f 78//97 81//97 80//97
f 56//98 33//98 49//98
f 60//99 61//99 64//99
f 25//100 64//100 52//100
f 25//101 52//101 24//101
f 78//102 79//102 71//102
f 60//103 79//103 61//103
f 8//104 7//104 2//104
f 8//105 2//105 9//105
f 34//106 21//106 33//106
f 63//107 79//107 60//107
f 34//108 33//108 56//108
f 71//109 79//109 63//109
f 38//110 60//110 25//110
f 22//111 25//111 24//111
f 17//112 8//112 9//112
f 26//113 9//113 21//113
f 66//114 56//114 49//114
f 66//115 49//115 72//115
f 15//116 24//116 7//116
f 75//117 78//117 71//117
f 63//118 60//118 38//118
f 10//119 8//119 17//119
f 26//120 21//120 34//120
f 48//121 56//121 66//121
f 12//122 8//122 10//122
f 55//123 51//123 53//123
f 50//124 41//124 54//124
f 51//125 55//125 46//125
f 30//126 31//126 29//126
f 30//127 50//127 40//127
f 45//128 40//128 50//128
f 39//129 53//129 51//129
f 45//130 50//130 53//130
f 51//131 30//131 39//131
f 39//132 45//132 53//132
f 39//133 30//133 40//133
f 55//134 42//134 46//134
f 55//135 54//135 42//135
f 43//136 36//136 31//136
f 42//137 54//137 41//137
f 36//138 41//138 29//138
f 29//139 31//139 36//139
f 36//140 42//140 41//140
f 36//141 43//141 40//141
f 42//142 36//142 45//142
f 46//143 42//143 39//143
f 43//144 46//144 39//144
f 45//145 39//145 42//145
f 40//146 45//146 36//146
f 43//147 39//147 40//147
f 56//148 48//148 46//148
f 48//149 44//149 46//149
f 35//150 34//150 31//150
f 44//151 35//151 30//151
f 34//152 56//152 46//152
f 12//153 11//153 30//153
f 7//154 8//154 29//154
f 8//155 12//155 29//155
f 11//156 15//156 41//156
f 15//157 7//157 41//157
f 67//158 75//158 50//158
f 71//159 63//159 54//159
f 63//160 67//160 54//160
f 75//161 71//161 55//161
f 51//162 46//162 44//162
f 31//163 30//163 35//163
f 30//164 51//164 44//164
f 46//165 43//165 34//165
f 43//166 31//166 34//166
f 50//167 30//167 11//167
f 29//168 41//168 7//168
f 30//169 29//169 12//169
f 41//170 50//170 11//170
f 53//171 50//171 75//171
f 54//172 55//172 71//172
f 50//173 54//173 67//173
f 55//174 53//174 75//174
