# Created by FreeCAD <http://www.freecadweb.org>
v 0.104782 0.035358 0.004609
v 0.114570 0.018219 -0.002309
v 0.105855 0.017658 -0.004253
v 0.083108 0.073612 0.005453
v 0.087412 0.060034 -0.001731
v 0.062504 0.086436 -0.002778
v 0.096000 0.065851 -0.002295
v 0.036400 0.102173 0.004511
v 0.050164 0.101457 0.004962
v 0.029798 0.112527 -0.000862
v 0.068296 0.092629 -0.003296
v 0.021441 0.105234 -0.003684
v -0.017346 0.105812 0.004031
v -0.008096 0.110563 -0.005293
v -0.026597 0.103228 -0.002540
v -0.000221 0.115110 0.003676
v -0.055040 0.101768 0.004291
v -0.046367 0.095455 0.002928
v -0.039869 0.106082 -0.005068
v -0.073653 0.075661 -0.000509
v -0.096132 0.059484 0.004749
v -0.072308 0.090516 -0.002151
v -0.086809 0.066910 -0.005321
v -0.099673 0.059878 0.000485
v -0.096562 0.055504 -0.005083
v -0.102176 0.024280 0.001054
v -0.109703 0.027631 -0.004497
v -0.103445 0.032386 0.003649
v -0.117119 0.004223 0.001786
v -0.108030 -0.018029 0.005099
v -0.109304 0.000274 -0.004835
v -0.089338 -0.069331 0.004552
v -0.104483 -0.045911 -0.005480
v -0.103010 -0.052333 0.002629
v -0.070447 -0.081371 0.004089
v -0.096984 -0.041523 0.000201
v -0.085265 -0.067072 0.004840
v -0.060099 -0.086457 0.001103
v -0.070309 -0.080793 -0.003555
v -0.078370 -0.084543 -0.002646
v -0.051272 -0.104090 0.000754
v -0.036705 -0.099471 0.002438
v -0.033399 -0.104787 -0.005014
v 0.004852 -0.115881 -0.001098
v -0.021640 -0.112251 0.004882
v 0.008800 -0.113750 -0.005174
v 0.003754 -0.106045 -0.000788
v 0.037889 -0.108192 0.004435
v 0.028697 -0.102520 0.003722
v 0.053287 -0.102501 -0.003137
v 0.063024 -0.085810 -0.000499
v 0.073665 -0.081302 0.005206
v 0.059211 -0.090842 -0.004523
v 0.080973 -0.082328 0.002588
v 0.098025 -0.060595 -0.001509
v 0.104860 -0.016610 0.002313
v 0.093199 -0.051562 0.003568
v 0.103027 -0.029711 -0.003953
v 0.108533 -0.037999 0.003206
v 0.074959 -0.080945 -0.005463
v 0.105699 -0.036578 -0.005284
v 0.110322 -0.021088 0.004987
v 0.110349 -0.025880 -0.004317
v 0.114232 -0.010514 -0.003404
v 0.105037 -0.011871 -0.002624
v 0.000000 -0.005000 -0.034000
v -0.002250 -0.005000 -0.024256
v 0.000000 0.005000 -0.034000
v -0.002250 0.005000 -0.024256
v 0.104931 -0.005000 0.000488
v 0.107181 -0.005000 -0.009255
v 0.107181 0.005000 -0.009255
v 0.104931 0.005000 0.000488
v 0.004330 0.002500 -0.034000
v 0.005455 0.000552 -0.024256
v -0.004330 -0.002500 -0.034000
v -0.003205 -0.004448 -0.024256
v -0.048135 0.093373 0.000488
v -0.049260 0.095321 -0.009255
v -0.057920 0.090321 -0.009255
v -0.056796 0.088373 0.000488
v -0.004330 0.002500 -0.034000
v -0.003205 0.004448 -0.024256
v 0.004330 -0.002500 -0.034000
v 0.005455 -0.000552 -0.024256
v -0.056796 -0.088373 0.000488
v -0.057920 -0.090321 -0.009255
v -0.049260 -0.095321 -0.009255
v -0.048135 -0.093373 0.000488
vn -0.991704 0.004171 -0.128474
vn 0.215377 0.034643 -0.975916
vn 0.206219 0.147317 -0.967353
vn 0.859447 0.334956 0.386206
vn -0.052076 -0.020007 -0.998443
vn 0.626173 0.339272 0.701998
vn -0.714849 -0.347239 0.606973
vn -0.796628 -0.459985 0.392169
vn -0.023657 -0.061901 -0.997802
vn 0.634550 0.670842 0.383820
vn -0.042288 -0.196306 0.979630
vn -0.454317 -0.524838 0.719820
vn 0.552743 0.662883 0.505036
vn -0.498532 -0.498449 -0.709235
vn -0.023401 -0.061484 -0.997834
vn 0.461482 0.884568 0.067632
vn -0.005267 0.457944 0.888965
vn -0.011304 -0.072752 -0.997286
vn -0.388811 -0.830105 0.399689
vn 0.082271 0.276297 -0.957545
vn 0.171083 0.537560 0.825687
vn -0.063298 -0.967276 -0.245705
vn 0.047003 -0.950358 0.307588
vn -0.005653 0.048455 0.998809
vn 0.098987 0.258457 -0.960938
vn 0.007397 0.889278 -0.457308
vn -0.008579 -0.332306 -0.943133
vn 0.337781 -0.935028 -0.107829
vn -0.235287 0.969708 0.065626
vn -0.133130 0.926232 -0.352663
vn 0.003513 0.031598 0.999494
vn 0.025782 -0.176941 0.983884
vn 0.062119 -0.484208 -0.872745
vn -0.433591 0.844873 -0.313351
vn 0.121723 -0.277970 -0.952846
vn 0.586076 -0.810150 0.013092
vn 0.095855 -0.082417 0.991977
vn -0.206819 0.253915 -0.944856
vn 0.432211 -0.695478 0.574025
vn -0.596250 0.585396 0.549361
vn 0.603836 -0.721394 -0.339076
vn -0.586844 0.573340 0.571747
vn -0.575423 0.455494 -0.679274
vn -0.494638 0.406956 -0.767933
vn 0.554896 -0.449284 -0.700167
vn -0.734549 0.245050 0.632763
vn 0.486320 -0.431702 -0.759688
vn -0.700182 0.316651 -0.639904
vn 0.308116 -0.121454 0.943564
vn -0.117592 -0.008573 0.993025
vn 0.943209 -0.218728 -0.250031
vn 0.837279 -0.043429 0.545049
vn -0.954221 0.298817 -0.013066
vn -0.068500 0.011331 -0.997587
vn 0.814316 -0.057437 0.577573
vn -0.646435 0.000010 -0.762969
vn -0.233528 0.049168 0.971106
vn 0.894498 -0.163531 -0.416089
vn -0.662432 -0.058725 -0.746817
vn 0.841208 0.302010 0.448507
vn -0.269304 -0.108316 0.956945
vn -0.637265 -0.147718 0.756355
vn 0.575470 0.071462 -0.814695
vn -0.970088 -0.242249 -0.015647
vn 0.840715 0.301517 0.449761
vn -0.134375 0.117006 0.983999
vn -0.780513 -0.615228 0.110876
vn 0.355504 0.322336 0.877335
vn -0.006192 -0.115330 0.993308
vn 0.418026 0.363580 -0.832505
vn 0.828387 0.557234 0.057145
vn -0.781848 -0.550021 -0.293582
vn -0.393250 -0.449639 0.801985
vn -0.059332 -0.112882 -0.991835
vn -0.533373 -0.644041 0.548384
vn 0.472600 0.866190 0.162370
vn 0.457269 0.886140 0.075243
vn 0.322978 0.530597 0.783678
vn -0.216194 -0.317986 0.923117
vn -0.081772 -0.065293 -0.994510
vn 0.486284 0.873794 -0.003362
vn -0.279531 -0.527068 -0.802535
vn 0.502334 0.793624 -0.343250
vn -0.203767 -0.915429 -0.347086
vn -0.184620 -0.786192 -0.589760
vn -0.185151 -0.863328 -0.469451
vn 0.090792 0.829337 -0.551323
vn 0.128176 0.329959 0.935253
vn -0.178711 0.953369 0.243210
vn 0.112901 0.546391 -0.829885
vn 0.054738 -0.727371 0.684058
vn -0.000950 0.123220 0.992379
vn 0.253383 -0.947170 -0.196638
vn 0.248127 -0.936146 -0.249126
vn 0.085582 -0.160357 -0.983342
vn -0.427466 0.899912 0.086209
vn -0.223316 0.643640 0.732023
vn -0.323099 0.728199 -0.604427
vn -0.138903 0.419687 -0.896978
vn 0.484279 -0.778145 0.399955
vn -0.052200 0.040855 0.997801
vn 0.021875 -0.128947 -0.991410
vn 0.264781 -0.377702 0.887261
vn -0.559500 0.407233 0.721887
vn 0.567738 -0.628204 -0.532009
vn -0.500163 0.522664 -0.690405
vn 0.603558 -0.577238 -0.550013
vn -0.059434 0.093745 0.993821
vn -0.492275 0.739803 -0.458648
vn 0.304896 -0.202548 0.930598
vn -0.171465 0.122731 -0.977516
vn -0.896450 0.286980 -0.337667
vn 0.698799 -0.442309 0.562176
vn 0.382632 -0.261536 -0.886111
vn 0.126870 -0.117143 0.984978
vn 0.879336 -0.339220 -0.334212
vn -0.336142 0.145569 0.930493
vn 0.854122 -0.335386 -0.397481
vn -0.857324 0.463040 0.224921
vn 0.961244 -0.234264 -0.145364
vn -0.465423 -0.039759 0.884195
vn 0.653769 0.069224 0.753521
vn 0.951321 -0.130048 0.279420
vn 0.918191 -0.025847 0.395294
vn 0.160689 0.018052 -0.986840
vn 0.163004 0.018291 -0.986456
vn -0.407186 0.018541 -0.913157
vn -0.835100 0.053320 0.547507
vn -0.992022 0.106803 0.066967
vn -0.999584 0.027144 -0.009766
vn -0.974361 0.000000 -0.224991
vn -0.974361 0.000000 -0.224991
vn 0.974356 0.000000 0.225013
vn 0.974356 -0.000000 0.225013
vn -0.000000 -1.000000 0.000000
vn 0.000000 -1.000000 0.000000
vn 0.000000 1.000000 0.000000
vn 0.000000 1.000000 0.000000
vn 0.224954 0.000000 -0.974369
vn 0.224954 0.000000 -0.974369
vn -0.224945 0.000000 0.974371
vn -0.224945 0.000000 0.974371
vn 0.487196 -0.843824 -0.224945
vn 0.487196 -0.843824 -0.224945
vn -0.487194 0.843820 0.224967
vn -0.487157 0.843854 0.224920
vn 0.866023 0.500004 -0.000028
vn 0.866023 0.500004 -0.000028
vn -0.866033 -0.499987 -0.000057
vn -0.866019 -0.500011 0.000026
vn -0.112480 0.194815 -0.974369
vn -0.112480 0.194815 -0.974369
vn 0.112475 -0.194807 0.974371
vn 0.112466 -0.194814 0.974371
vn 0.487196 0.843824 -0.224945
vn 0.487196 0.843824 -0.224945
vn -0.487200 -0.843829 0.224920
vn -0.487152 -0.843844 0.224967
vn -0.866033 0.499987 -0.000057
vn -0.866019 0.500011 0.000026
vn 0.866023 -0.500004 -0.000028
vn 0.866023 -0.500004 -0.000028
vn -0.112480 -0.194815 -0.974369
vn -0.112480 -0.194815 -0.974369
vn 0.112475 0.194808 0.974371
vn 0.112466 0.194813 0.974371
f 56//1 1//1 3//1
f 3//2 2//2 64//2
f 3//3 5//3 2//3
f 2//4 7//4 1//4
f 5//5 7//5 2//5
f 1//6 7//6 4//6
f 1//7 5//7 3//7
f 4//8 5//8 1//8
f 5//9 6//9 7//9
f 7//10 11//10 4//10
f 9//11 8//11 5//11
f 4//12 9//12 5//12
f 11//13 9//13 4//13
f 8//14 6//14 5//14
f 7//15 6//15 11//15
f 11//16 10//16 9//16
f 9//17 10//17 8//17
f 6//18 12//18 11//18
f 8//19 12//19 6//19
f 11//20 12//20 10//20
f 8//21 10//21 16//21
f 8//22 13//22 12//22
f 12//23 13//23 15//23
f 16//24 13//24 8//24
f 12//25 14//25 10//25
f 10//26 14//26 16//26
f 15//27 14//27 12//27
f 13//28 18//28 15//28
f 16//29 19//29 17//29
f 14//30 19//30 16//30
f 16//31 17//31 13//31
f 17//32 18//32 13//32
f 14//33 15//33 19//33
f 19//34 22//34 17//34
f 15//35 20//35 19//35
f 18//36 21//36 20//36
f 17//37 21//37 18//37
f 19//38 23//38 22//38
f 18//39 20//39 15//39
f 17//40 24//40 21//40
f 19//41 20//41 23//41
f 22//42 24//42 17//42
f 22//43 25//43 24//43
f 23//44 25//44 22//44
f 20//45 28//45 23//45
f 24//46 29//46 21//46
f 23//47 28//47 25//47
f 25//48 27//48 24//48
f 21//49 28//49 20//49
f 21//50 29//50 28//50
f 25//51 26//51 31//51
f 28//52 26//52 25//52
f 24//53 27//53 29//53
f 25//54 31//54 27//54
f 26//55 28//55 30//55
f 27//56 31//56 29//56
f 29//57 30//57 28//57
f 30//58 31//58 26//58
f 31//59 33//59 29//59
f 30//60 36//60 31//60
f 30//61 34//61 32//61
f 29//62 34//62 30//62
f 31//63 36//63 33//63
f 29//64 33//64 34//64
f 32//65 36//65 30//65
f 32//66 37//66 36//66
f 34//67 40//67 32//67
f 37//68 35//68 36//68
f 32//69 41//69 37//69
f 36//70 39//70 33//70
f 36//71 35//71 39//71
f 33//72 40//72 34//72
f 41//73 35//73 37//73
f 33//74 39//74 40//74
f 40//75 41//75 32//75
f 35//76 42//76 38//76
f 35//77 38//77 39//77
f 35//78 45//78 42//78
f 41//79 45//79 35//79
f 39//80 43//80 40//80
f 39//81 38//81 42//81
f 40//82 43//82 41//82
f 39//83 42//83 43//83
f 41//84 44//84 45//84
f 41//85 46//85 44//85
f 41//86 43//86 46//86
f 42//87 47//87 43//87
f 42//88 45//88 47//88
f 45//89 49//89 47//89
f 47//90 46//90 43//90
f 45//91 44//91 48//91
f 45//92 48//92 49//92
f 44//93 50//93 48//93
f 44//94 46//94 50//94
f 46//95 53//95 50//95
f 52//96 51//96 49//96
f 49//97 51//97 47//97
f 46//98 51//98 53//98
f 47//99 51//99 46//99
f 48//100 50//100 54//100
f 48//101 52//101 49//101
f 53//102 60//102 50//102
f 54//103 52//103 48//103
f 52//104 57//104 51//104
f 50//105 60//105 54//105
f 57//106 60//106 51//106
f 54//107 60//107 55//107
f 52//108 59//108 57//108
f 51//109 60//109 53//109
f 54//110 59//110 52//110
f 60//111 58//111 61//111
f 58//112 57//112 56//112
f 55//113 59//113 54//113
f 60//114 61//114 55//114
f 59//115 62//115 57//115
f 55//116 63//116 59//116
f 57//117 62//117 56//117
f 61//118 63//118 55//118
f 57//119 58//119 60//119
f 59//120 63//120 64//120
f 56//121 62//121 1//121
f 1//122 62//122 2//122
f 59//123 64//123 62//123
f 62//124 64//124 2//124
f 64//125 63//125 3//125
f 63//126 61//126 3//126
f 61//127 58//127 3//127
f 58//128 65//128 3//128
f 56//129 65//129 58//129
f 3//130 65//130 56//130
f 66//131 67//131 68//131
f 68//132 67//132 69//132
f 70//133 71//133 72//133
f 70//134 72//134 73//134
f 71//135 70//135 66//135
f 66//136 70//136 67//136
f 73//137 72//137 68//137
f 73//138 68//138 69//138
f 68//139 72//139 66//139
f 66//140 72//140 71//140
f 73//141 69//141 67//141
f 73//142 67//142 70//142
f 74//143 75//143 76//143
f 76//144 75//144 77//144
f 78//145 79//145 80//145
f 78//146 80//146 81//146
f 79//147 78//147 74//147
f 74//148 78//148 75//148
f 81//149 80//149 76//149
f 81//150 76//150 77//150
f 76//151 80//151 74//151
f 74//152 80//152 79//152
f 81//153 77//153 75//153
f 81//154 75//154 78//154
f 82//155 83//155 84//155
f 84//156 83//156 85//156
f 86//157 87//157 88//157
f 86//158 88//158 89//158
f 87//159 86//159 82//159
f 82//160 86//160 83//160
f 89//161 88//161 84//161
f 89//162 84//162 85//162
f 84//163 88//163 82//163
f 82//164 88//164 87//164
f 89//165 85//165 83//165
f 89//166 83//166 86//166
