# Created by FreeCAD <http://www.freecadweb.org>
v -0.091559 0.079315 0.000889
v -0.073045 0.091803 0.008952
v -0.114948 0.037523 0.002127
v -0.081650 0.081425 -0.009735
v -0.071252 0.094516 -0.005866
v -0.106809 0.053405 -0.006431
v -0.094046 0.052660 -0.009871
v -0.060349 0.098501 0.008954
v -0.047724 0.101594 0.010802
v -0.061457 0.082890 0.007058
v -0.110904 0.024873 0.010506
v -0.073494 0.068191 -0.003252
v -0.045667 0.099470 -0.010323
v -0.087324 0.052903 -0.005780
v -0.099488 0.016244 -0.004249
v -0.061364 0.083171 -0.009366
v -0.097355 0.025963 0.000909
v -0.103562 0.008748 -0.008304
v -0.047579 0.111537 -0.002194
v -0.009655 0.116520 -0.008153
v -0.041190 0.091909 -0.001345
v -0.117038 -0.003348 -0.008780
v -0.100455 -0.001181 -0.002576
v -0.018662 0.119058 0.002656
v -0.121302 -0.019750 -0.001974
v -0.099636 -0.054874 -0.010167
v -0.105157 -0.040701 0.010856
v 0.012788 0.112300 -0.010732
v -0.097442 -0.029494 -0.006280
v -0.095681 -0.030580 -0.000174
v 0.017880 0.100523 0.004393
v -0.012347 0.100402 -0.005207
v 0.011965 0.117421 0.008884
v 0.040455 0.102986 0.009937
v -0.002643 0.101285 -0.005482
v -0.077492 -0.063592 0.001761
v 0.040895 0.114108 0.002688
v 0.008707 0.100770 -0.005202
v 0.018136 0.099683 -0.005482
v -0.078597 -0.063788 -0.004829
v 0.055459 0.102736 -0.009234
v 0.029133 0.096859 -0.005202
v -0.017416 0.010204 -0.010090
v -0.019434 -0.000193 -0.030690
v -0.020644 -0.000421 -0.010005
v 0.043895 0.091346 -0.005334
v -0.000033 0.020049 -0.010040
v -0.017321 -0.010000 -0.010000
v -0.052519 -0.108231 0.005197
v -0.093733 -0.075836 0.006455
v -0.007352 -0.003250 -0.030004
v -0.058120 -0.084638 0.007222
v -0.058301 -0.084780 -0.007516
v -0.004693 0.008396 -0.010005
v 0.000527 0.020515 -0.030067
v -0.075466 -0.087213 -0.010097
v 0.072982 0.071452 0.004509
v -0.006623 -0.007337 -0.010466
v -0.005468 -0.009545 -0.030000
v -0.002789 0.008126 -0.030013
v 0.009877 0.018078 -0.010002
v 0.008664 0.001251 -0.010001
v -0.002450 -0.009317 -0.010000
v -0.048968 -0.101713 -0.010691
v -0.045595 -0.094357 0.009292
v 0.003373 -0.007325 -0.030003
v 0.007688 0.003799 -0.029999
v 0.003225 -0.007611 -0.010000
v 0.052674 0.087613 -0.006879
v -0.042548 -0.092316 -0.001918
v -0.034462 -0.111691 0.009499
v 0.017195 0.011100 -0.030072
v -0.000000 -0.020000 -0.010000
v 0.001254 -0.020332 -0.030014
v 0.076986 0.091780 0.006589
v 0.017380 -0.010800 -0.030021
v 0.017786 0.009937 -0.010194
v 0.017316 -0.011765 -0.010040
v 0.071132 0.071878 -0.005100
v -0.026713 -0.115961 -0.006754
v -0.022381 -0.102084 0.008138
v 0.083987 0.082464 -0.007244
v 0.085174 0.068379 -0.010477
v 0.095835 0.073294 -0.000558
v 0.086324 0.052901 -0.004614
v 0.112011 0.038392 -0.008815
v 0.095837 0.048191 0.009236
v 0.113591 0.026557 0.009295
v 0.005891 -0.101481 -0.005974
v -0.003445 -0.119163 -0.005268
v -0.013815 -0.119046 0.003594
v 0.099118 0.014898 0.003832
v 0.106937 0.053122 0.007019
v 0.002230 -0.108129 -0.009856
v 0.010830 -0.099353 0.000773
v 0.098658 0.032473 -0.007834
v 0.114277 0.038459 -0.000693
v 0.028731 -0.097020 -0.005408
v 0.018923 -0.117129 -0.005836
v 0.054032 -0.105490 -0.007365
v 0.054108 -0.085468 -0.004577
v 0.101260 0.009620 -0.007840
v 0.031644 -0.115995 0.007077
v 0.100894 -0.011627 -0.004752
v 0.075579 -0.067754 -0.005449
v 0.101117 -0.012163 0.005731
v 0.047525 -0.091210 0.007755
v 0.119320 0.001318 -0.008716
v 0.106261 -0.012032 -0.009172
v 0.083867 -0.057230 -0.005951
v 0.092466 -0.040102 -0.005014
v 0.079792 -0.062129 0.004364
v 0.072061 -0.087208 -0.010717
v 0.100679 -0.048990 -0.010448
v 0.089354 -0.067172 0.010582
v 0.069006 -0.091249 -0.009109
v 0.114412 -0.026105 0.009654
v 0.107696 -0.057960 -0.002879
v 0.077737 -0.093663 0.002396
vn -0.311956 0.444059 0.839938
vn 0.535743 0.340487 0.772689
vn 0.577930 0.001476 0.816085
vn -0.053346 -0.273880 0.960283
vn -0.187044 -0.350871 0.917553
vn -0.081792 0.025154 0.996332
vn 0.033402 -0.048710 0.998254
vn 0.139208 0.128137 0.981938
vn 0.279475 -0.393231 0.875935
vn -0.663357 -0.054149 0.746341
vn -0.555882 0.332129 0.762027
vn 0.235331 0.523464 0.818904
vn 0.437954 -0.898643 0.025230
vn -0.614204 -0.775794 -0.144557
vn -0.948528 0.126033 -0.290533
vn 0.085085 0.983449 -0.159968
vn 0.057162 0.966573 -0.249936
vn 0.531840 0.834160 -0.146024
vn 0.655445 -0.717888 -0.234582
vn -0.585152 -0.176329 -0.791521
vn -0.034855 -0.086377 -0.995653
vn 0.031320 0.003505 -0.999503
vn -0.400492 0.179337 -0.898579
vn -0.248384 0.807037 -0.535721
vn 0.336019 0.249164 -0.908300
vn 0.958222 -0.039451 -0.283291
vn 0.420328 -0.176932 -0.889955
vn 0.152638 -0.717116 -0.680034
vn -0.409228 -0.743672 -0.528663
vn 0.491278 -0.377786 -0.784809
vn 0.921673 0.068061 -0.381950
vn -0.985142 -0.112143 -0.130071
vn -0.785886 0.618140 -0.016935
vn -0.635794 0.771603 0.019902
vn -0.411654 0.890273 0.194819
vn 0.868547 0.469217 -0.159565
vn 0.958205 0.134979 -0.252239
vn 0.964506 -0.077757 -0.252354
vn 0.081107 -0.966572 -0.243227
vn -0.045767 -0.998791 0.017966
vn -0.111805 -0.990398 0.081317
vn -0.249792 -0.965343 0.075603
vn -0.349817 -0.935308 -0.053173
vn -0.417089 -0.811920 -0.408439
vn -0.651117 -0.753387 0.091947
vn -0.776336 -0.618393 0.122038
vn -0.958389 0.283329 0.034855
vn -0.882566 0.450462 -0.134763
vn -0.817919 -0.372757 -0.438247
vn -0.430905 -0.818275 -0.380457
vn 0.172559 -0.828388 -0.532914
vn 0.564833 -0.390774 -0.726815
vn 0.604549 0.033138 -0.795879
vn 0.737691 0.674960 -0.015537
vn 0.139656 0.910412 -0.389417
vn -0.183495 0.968961 -0.165665
vn -0.671315 0.729672 -0.130057
vn -0.758674 -0.373968 -0.533444
vn 0.789689 -0.101911 -0.604983
vn 0.113842 0.140778 -0.983474
vn 0.703069 0.697484 -0.138601
vn 0.021047 0.495507 -0.868349
vn 0.981643 -0.162190 -0.100355
vn -0.184852 0.967956 -0.169975
vn 0.093163 0.644699 -0.758738
vn -0.409741 -0.349609 -0.842547
vn -0.084002 0.536588 -0.839653
vn -0.354121 0.227410 -0.907129
vn -0.615640 0.189246 -0.764967
vn -0.678066 -0.303898 -0.669233
vn -0.414005 -0.566225 -0.712734
vn -0.197695 -0.509245 -0.837608
vn -0.082836 -0.412571 -0.907151
vn -0.074254 -0.409770 -0.909162
vn 0.002577 -0.433197 -0.901296
vn 0.015427 -0.447739 -0.894031
vn 0.006745 -0.432839 -0.901446
vn 0.052106 -0.413250 -0.909126
vn 0.500929 -0.320189 -0.804082
vn 0.852103 -0.201886 -0.482870
vn 0.353874 0.305957 -0.883835
vn 0.112342 0.232280 -0.966139
vn -0.222796 0.547446 -0.806638
vn -0.282903 0.298018 -0.911675
vn -0.442154 0.308049 -0.842381
vn -0.376801 0.288336 -0.880275
vn 0.334898 -0.297046 -0.894207
vn -0.155816 0.024757 -0.987476
vn -0.069875 -0.007695 -0.997526
vn -0.178667 -0.119194 -0.976663
vn 0.000190 -0.153904 -0.988086
vn 0.025249 -0.082809 -0.996246
vn 0.083203 -0.053540 -0.995093
vn 0.008559 0.029797 -0.999519
vn 0.110678 0.241756 -0.964004
vn -0.021736 -0.297673 -0.954421
vn 0.233607 0.236172 -0.943213
vn -0.062823 0.255474 -0.964773
vn -0.254607 0.085758 -0.963235
vn 0.058654 -0.235707 -0.970052
vn 0.322108 0.237480 -0.916433
vn -0.252387 0.113309 -0.960969
vn 0.005723 -0.386424 -0.922303
vn 0.457393 -0.336693 -0.823061
vn -0.199041 0.525655 -0.827085
vn -0.268434 0.508599 -0.818089
vn 0.012007 -0.389154 -0.921094
vn 0.061411 -0.309893 -0.948786
vn 0.530997 -0.627982 -0.568929
vn 0.626558 -0.646852 -0.434751
vn 0.594553 -0.193439 -0.780441
vn 0.677247 0.451340 -0.581058
vn -0.123188 0.369989 -0.920833
vn -0.625340 0.631969 -0.457782
vn -0.666997 0.538157 -0.515268
vn 0.946044 0.185796 -0.265480
vn 0.659300 0.734457 -0.160925
vn 0.573593 0.783921 -0.237613
vn 0.202639 0.820251 -0.534907
vn 0.152113 0.957855 -0.243672
vn -0.177200 0.915000 -0.362458
vn -0.588061 0.807336 0.048920
vn -0.854518 0.174272 -0.489315
vn -0.845445 -0.457097 -0.276199
vn -0.724075 -0.542074 -0.426464
vn -0.442199 -0.790781 -0.423233
vn -0.434224 -0.795176 -0.423254
vn 0.090539 -0.995891 -0.001784
vn 0.299074 -0.930157 -0.212987
vn 0.537110 -0.545715 -0.643202
vn 0.815522 0.530230 -0.231903
vn -0.126610 -0.982707 -0.135118
vn 0.980337 -0.195133 -0.029374
vn 0.979238 0.094180 0.179509
vn 0.888348 0.441530 -0.126053
vn -0.584218 0.806282 0.092733
vn -0.868782 0.488612 0.080475
vn 0.060326 -0.994657 0.083776
vn -0.267066 -0.962581 0.045961
vn 0.959405 0.016877 0.281525
vn 0.708885 0.554059 0.436464
vn -0.417487 0.791177 0.446927
vn 0.894872 0.255500 0.365955
vn -0.246349 -0.924663 0.290363
vn 0.664079 -0.390793 0.637401
vn -0.130638 0.589287 0.797292
vn -0.294841 0.760498 0.578542
vn -0.272839 0.765554 0.582655
vn -0.551093 0.331118 0.765935
vn -0.860960 0.059340 0.505200
vn -0.809694 -0.324531 0.488953
vn -0.283858 -0.395061 0.873700
vn -0.014535 -0.650468 0.759394
vn 0.663355 -0.470664 0.581753
vn -0.071946 -0.034304 0.996818
vn 0.142933 0.119973 0.982434
vn 0.123034 0.106295 0.986694
vn 0.236160 0.525719 0.817219
vn -0.235750 0.446585 0.863124
vn -0.162065 0.121016 0.979331
vn 0.005080 0.006896 0.999963
vn 0.005938 -0.200460 0.979684
vn 0.125198 -0.047810 0.990979
vn -0.056416 -0.142133 0.988239
vn 0.068021 0.055583 0.996134
vn -0.730634 -0.178956 0.658900
vn 0.044014 0.262063 0.964047
vn -0.469389 0.176661 0.865138
vn -0.233137 0.050931 0.971109
vn -0.700973 -0.707313 -0.091352
vn -0.193833 -0.314785 0.929161
vn 0.546248 -0.422580 0.723215
vn 0.725475 0.067232 0.684957
vn 0.225677 -0.147400 0.962987
vn -0.237846 0.962969 0.126966
vn 0.209109 -0.706691 0.675915
vn -0.877911 0.382561 -0.287955
vn -0.375559 -0.184438 0.908261
vn 0.828655 -0.494140 -0.262977
vn 0.664864 0.687649 0.291709
vn 0.316876 0.914217 0.252581
vn 0.072267 0.783947 0.616607
vn 0.775861 -0.630872 -0.006404
vn 0.508412 -0.860188 -0.039919
vn 0.488102 0.864145 -0.122518
vn 0.194807 0.980434 0.028281
vn 0.717356 0.696437 0.019376
vn 0.429173 -0.902253 0.041843
vn -0.943104 -0.327258 -0.058799
vn -0.955601 0.289909 -0.052715
vn 0.049404 -0.017579 -0.998624
vn -0.003427 -0.005536 -0.999979
vn -0.000418 -0.004247 -0.999991
vn -0.001033 0.001014 -0.999999
vn -0.005853 -0.002378 -0.999980
vn 0.085826 0.054773 -0.994803
vn 0.051286 -0.021358 -0.998456
vn -0.000575 0.000940 -0.999999
vn -0.001091 0.000783 -0.999999
vn 0.061129 0.017657 -0.997974
vn -0.002999 0.004203 0.999987
vn 0.002636 -0.000686 0.999996
vn 0.002432 -0.001380 0.999996
vn 0.014701 0.006776 0.999869
vn 0.017364 -0.031413 0.999356
vn 0.022650 -0.001574 0.999742
vn -0.005917 0.005370 0.999968
vn -0.005314 0.009614 0.999940
vn 0.039939 0.014379 0.999099
vn -0.000258 0.000078 1.000000
vn -0.124296 -0.028501 0.991836
vn -0.000000 0.000000 1.000000
vn 0.990867 -0.119734 -0.062024
vn -0.469832 -0.878259 -0.088989
vn -0.852246 0.523140 0.001133
vn -0.287959 0.957573 0.011541
vn -0.928441 0.360116 0.091181
vn -0.381619 -0.924012 -0.023844
vn 0.924156 -0.370549 0.092899
vn 0.957744 0.286601 0.024213
vn 0.434484 0.897486 -0.075771
vn -0.243413 0.969582 0.025706
vn 0.859811 -0.489734 0.144516
vn 0.855475 -0.512003 -0.077565
vn -0.876848 0.480728 0.006153
vn -0.414650 -0.058265 -0.908113
vn 0.023720 0.237415 0.971119
vn -0.207604 0.143110 -0.967688
vn 0.026049 -0.214561 0.976363
vn -0.856603 -0.515795 -0.013682
vn 0.867011 0.498122 -0.012911
vn 0.869152 0.488323 0.078206
vn 0.255824 0.118121 -0.959480
vn -0.173006 0.056228 0.983314
vn 0.015021 0.912099 -0.409695
vn -0.003828 -0.996232 0.086649
vn 0.004897 -0.998677 -0.051186
vn 0.855880 -0.513427 0.062143
vn -0.830724 0.465393 0.305461
vn -0.121500 -0.157706 -0.979983
vn 0.158286 0.118843 0.980215
vn -0.015639 0.232914 0.972372
vn -0.138720 0.163106 -0.976808
vn 0.104067 -0.188720 0.976501
vn -0.808242 -0.490043 0.326500
vn 0.866451 0.497974 0.035834
vn 0.228369 -0.000329 -0.973575
vn -0.184889 0.010979 0.982698
vn 0.002150 0.998295 0.058330
vn -0.002520 -0.998832 -0.048258
f 115//1 112//1 107//1
f 27//2 36//2 30//2
f 11//3 30//3 17//3
f 33//4 21//4 31//4
f 34//5 31//5 57//5
f 103//6 115//6 107//6
f 103//7 107//7 71//7
f 93//8 34//8 87//8
f 119//9 115//9 103//9
f 25//10 27//10 11//10
f 1//11 11//11 2//11
f 37//12 33//12 75//12
f 100//13 119//13 103//13
f 56//14 49//14 50//14
f 22//15 25//15 3//15
f 20//16 24//16 33//16
f 28//17 33//17 37//17
f 41//18 37//18 75//18
f 116//19 118//19 100//19
f 26//20 25//20 22//20
f 96//21 83//21 86//21
f 109//22 86//22 108//22
f 111//23 108//23 114//23
f 98//24 113//24 94//24
f 40//25 56//25 26//25
f 30//26 26//26 29//26
f 12//27 7//27 4//27
f 21//28 13//28 28//28
f 46//29 28//29 69//29
f 17//30 7//30 14//30
f 23//31 26//31 18//31
f 92//32 96//32 102//32
f 112//33 110//33 105//33
f 107//34 105//34 101//34
f 107//35 101//35 98//35
f 36//36 40//36 30//36
f 30//37 29//37 23//37
f 17//38 23//38 15//38
f 31//39 32//39 35//39
f 31//40 35//40 38//40
f 31//41 38//41 39//41
f 31//42 39//42 42//42
f 31//43 42//43 46//43
f 57//44 46//44 69//44
f 57//45 69//45 79//45
f 57//46 79//46 85//46
f 106//47 104//47 111//47
f 110//48 112//48 111//48
f 85//49 92//49 57//49
f 46//50 57//50 31//50
f 32//51 31//51 21//51
f 14//52 12//52 17//52
f 23//53 17//53 30//53
f 53//54 36//54 52//54
f 89//55 70//55 95//55
f 98//56 95//56 107//56
f 105//57 107//57 112//57
f 96//58 92//58 85//58
f 18//59 15//59 23//59
f 26//60 23//60 29//60
f 40//61 36//61 53//61
f 94//62 70//62 89//62
f 7//63 17//63 15//63
f 89//64 95//64 98//64
f 64//65 70//65 94//65
f 83//66 85//66 79//66
f 94//67 89//67 98//67
f 114//68 110//68 111//68
f 109//69 111//69 104//69
f 96//70 85//70 83//70
f 83//71 79//71 69//71
f 28//72 46//72 42//72
f 28//73 42//73 39//73
f 28//74 39//74 38//74
f 28//75 38//75 35//75
f 28//76 35//76 32//76
f 28//77 32//77 21//77
f 4//78 16//78 12//78
f 7//79 12//79 14//79
f 7//80 15//80 18//80
f 26//81 30//81 40//81
f 56//82 40//82 53//82
f 113//83 98//83 101//83
f 113//84 101//84 105//84
f 113//85 105//85 110//85
f 113//86 110//86 114//86
f 108//87 111//87 109//87
f 86//88 109//88 102//88
f 86//89 102//89 96//89
f 41//90 83//90 69//90
f 41//91 69//91 28//91
f 13//92 16//92 4//92
f 22//93 7//93 18//93
f 22//94 18//94 26//94
f 56//95 53//95 64//95
f 80//96 64//96 94//96
f 82//97 83//97 41//97
f 20//98 28//98 13//98
f 6//99 7//99 22//99
f 100//100 94//100 113//100
f 86//101 83//101 82//101
f 6//102 4//102 7//102
f 90//103 80//103 94//103
f 118//104 113//104 114//104
f 19//105 20//105 13//105
f 19//106 13//106 4//106
f 99//107 90//107 94//107
f 99//108 94//108 100//108
f 100//109 113//109 116//109
f 118//110 116//110 113//110
f 118//111 114//111 108//111
f 84//112 86//112 82//112
f 19//113 4//113 5//113
f 1//114 5//114 4//114
f 1//115 4//115 6//115
f 108//116 86//116 97//116
f 75//117 84//117 82//117
f 75//118 82//118 41//118
f 37//119 41//119 28//119
f 33//120 28//120 20//120
f 24//121 20//121 19//121
f 19//122 5//122 1//122
f 3//123 6//123 22//123
f 50//124 25//124 26//124
f 50//125 26//125 56//125
f 49//126 56//126 64//126
f 49//127 64//127 80//127
f 103//128 90//128 99//128
f 103//129 99//129 100//129
f 119//130 100//130 118//130
f 93//131 97//131 86//131
f 91//132 80//132 90//132
f 117//133 118//133 108//133
f 88//134 108//134 97//134
f 93//135 86//135 84//135
f 2//136 19//136 1//136
f 1//137 6//137 3//137
f 91//138 90//138 103//138
f 49//139 80//139 91//139
f 88//140 117//140 108//140
f 93//141 84//141 75//141
f 8//142 19//142 2//142
f 88//143 97//143 93//143
f 71//144 49//144 91//144
f 115//145 118//145 117//145
f 9//146 33//146 24//146
f 9//147 24//147 19//147
f 9//148 19//148 8//148
f 11//149 1//149 3//149
f 11//150 3//150 25//150
f 27//151 25//151 50//151
f 50//152 49//152 71//152
f 71//153 91//153 103//153
f 115//154 119//154 118//154
f 65//155 50//155 71//155
f 87//156 88//156 93//156
f 34//157 93//157 75//157
f 34//158 75//158 33//158
f 9//159 8//159 2//159
f 115//160 117//160 106//160
f 87//161 117//161 88//161
f 10//162 9//162 2//162
f 10//163 2//163 11//163
f 52//164 27//164 50//164
f 81//165 65//165 71//165
f 92//166 117//166 87//166
f 52//167 50//167 65//167
f 112//168 115//168 106//168
f 106//169 117//169 92//169
f 57//170 87//170 34//170
f 31//171 34//171 33//171
f 17//172 10//172 11//172
f 30//173 11//173 27//173
f 95//174 81//174 71//174
f 95//175 71//175 107//175
f 21//176 33//176 9//176
f 111//177 112//177 106//177
f 92//178 87//178 57//178
f 12//179 10//179 17//179
f 36//180 27//180 52//180
f 70//181 65//181 81//181
f 70//182 81//182 95//182
f 16//183 10//183 12//183
f 78//184 74//184 76//184
f 61//185 72//185 55//185
f 55//186 47//186 61//186
f 72//187 61//187 77//187
f 74//188 78//188 73//188
f 44//189 48//189 45//189
f 44//190 45//190 43//190
f 44//191 55//191 60//191
f 55//192 72//192 67//192
f 67//193 60//193 55//193
f 66//194 76//194 74//194
f 67//195 72//195 76//195
f 74//196 44//196 59//196
f 60//197 51//197 44//197
f 66//198 74//198 59//198
f 66//199 67//199 76//199
f 59//200 44//200 51//200
f 61//201 47//201 54//201
f 68//202 73//202 78//202
f 78//203 62//203 68//203
f 78//204 77//204 62//204
f 58//205 54//205 45//205
f 62//206 77//206 61//206
f 54//207 47//207 43//207
f 43//208 45//208 54//208
f 45//209 48//209 58//209
f 54//210 62//210 61//210
f 58//211 73//211 63//211
f 63//212 73//212 68//212
f 54//213 58//213 51//213
f 62//214 54//214 67//214
f 68//215 62//215 66//215
f 63//216 68//216 66//216
f 67//217 66//217 62//217
f 60//218 67//218 54//218
f 51//219 60//219 54//219
f 58//220 59//220 51//220
f 59//221 58//221 63//221
f 63//222 66//222 59//222
f 65//223 70//223 73//223
f 70//224 64//224 73//224
f 53//225 52//225 48//225
f 64//226 53//226 44//226
f 52//227 65//227 73//227
f 16//228 13//228 44//228
f 9//229 10//229 43//229
f 10//230 16//230 43//230
f 13//231 21//231 47//231
f 21//232 9//232 47//232
f 102//233 109//233 72//233
f 106//234 92//234 77//234
f 92//235 102//235 77//235
f 109//236 104//236 78//236
f 104//237 106//237 78//237
f 74//238 73//238 64//238
f 48//239 44//239 53//239
f 44//240 74//240 64//240
f 73//241 58//241 52//241
f 58//242 48//242 52//242
f 55//243 44//243 13//243
f 43//244 47//244 9//244
f 44//245 43//245 16//245
f 47//246 55//246 13//246
f 76//247 72//247 109//247
f 77//248 78//248 106//248
f 72//249 77//249 102//249
f 78//250 76//250 109//250
