# Created by FreeCAD <http://www.freecadweb.org>
v 0.105000 0.000000 -0.000000
v 0.095263 0.055000 0.005000
v 0.090933 0.052500 -0.000000
v 0.110000 0.000000 0.005000
v 0.115000 0.000000 0.000000
v 0.099593 0.057500 0.000000
v 0.095263 0.055000 -0.005000
v 0.110000 0.000000 -0.005000
v 0.055000 0.095263 0.005000
v 0.052500 0.090933 -0.000000
v 0.057500 0.099593 0.000000
v 0.055000 0.095263 -0.005000
v 0.000000 0.110000 0.005000
v 0.000000 0.105000 -0.000000
v 0.000000 0.115000 0.000000
v 0.000000 0.110000 -0.005000
v -0.055000 0.095263 0.005000
v -0.052500 0.090933 -0.000000
v -0.057500 0.099593 0.000000
v -0.055000 0.095263 -0.005000
v -0.095263 0.055000 0.005000
v -0.090933 0.052500 -0.000000
v -0.099593 0.057500 0.000000
v -0.095263 0.055000 -0.005000
v -0.110000 0.000000 0.005000
v -0.105000 0.000000 -0.000000
v -0.115000 0.000000 0.000000
v -0.110000 0.000000 -0.005000
v -0.095263 -0.055000 0.005000
v -0.090933 -0.052500 -0.000000
v -0.099593 -0.057500 0.000000
v -0.095263 -0.055000 -0.005000
v -0.055000 -0.095263 0.005000
v -0.052500 -0.090933 -0.000000
v -0.057500 -0.099593 0.000000
v -0.055000 -0.095263 -0.005000
v 0.000000 -0.110000 0.005000
v -0.000000 -0.105000 -0.000000
v 0.000000 -0.115000 0.000000
v 0.000000 -0.110000 -0.005000
v 0.055000 -0.095263 0.005000
v 0.052500 -0.090933 -0.000000
v 0.057500 -0.099593 0.000000
v 0.055000 -0.095263 -0.005000
v 0.095263 -0.055000 0.005000
v 0.090933 -0.052500 -0.000000
v 0.099593 -0.057500 0.000000
v 0.095263 -0.055000 -0.005000
v 0.000000 -0.005000 -0.034000
v -0.002250 -0.005000 -0.024256
v 0.000000 0.005000 -0.034000
v -0.002250 0.005000 -0.024256
v 0.104931 -0.005000 0.000488
v 0.107181 -0.005000 -0.009255
v 0.107181 0.005000 -0.009255
v 0.104931 0.005000 0.000488
v 0.004330 0.002500 -0.034000
v 0.005455 0.000552 -0.024256
v -0.004330 -0.002500 -0.034000
v -0.003205 -0.004448 -0.024256
v -0.048135 0.093373 0.000488
v -0.049260 0.095321 -0.009255
v -0.057920 0.090321 -0.009255
v -0.056796 0.088373 0.000488
v -0.004330 0.002500 -0.034000
v -0.003205 0.004448 -0.024256
v 0.004330 -0.002500 -0.034000
v 0.005455 -0.000552 -0.024256
v -0.056796 -0.088373 0.000488
v -0.057920 -0.090321 -0.009255
v -0.049260 -0.095321 -0.009255
v -0.048135 -0.093373 0.000488
vn -0.694746 -0.186157 0.694747
vn -0.694746 -0.186157 0.694747
vn 0.694746 0.186157 0.694747
vn 0.694747 0.186157 0.694747
vn -0.694746 -0.186157 -0.694747
vn 0.694746 0.186157 -0.694747
vn -0.694746 -0.186157 -0.694747
vn 0.694746 0.186157 -0.694747
vn -0.508590 -0.508590 0.694747
vn -0.508590 -0.508590 0.694747
vn 0.508590 0.508590 0.694747
vn 0.508590 0.508590 0.694747
vn -0.508590 -0.508590 -0.694747
vn 0.508590 0.508590 -0.694747
vn -0.508590 -0.508590 -0.694747
vn 0.508590 0.508590 -0.694747
vn -0.186157 -0.694746 0.694747
vn -0.186157 -0.694746 0.694747
vn 0.186157 0.694746 0.694747
vn 0.186157 0.694746 0.694747
vn -0.186157 -0.694746 -0.694747
vn 0.186157 0.694746 -0.694747
vn 0.186157 0.694746 -0.694747
vn -0.186157 -0.694746 -0.694747
vn 0.186157 -0.694746 0.694747
vn 0.186157 -0.694746 0.694747
vn -0.186157 0.694746 0.694747
vn -0.186157 0.694747 0.694747
vn 0.186157 -0.694746 -0.694747
vn -0.186157 0.694746 -0.694747
vn 0.186157 -0.694746 -0.694747
vn -0.186157 0.694746 -0.694747
vn 0.508590 -0.508590 0.694747
vn 0.508590 -0.508590 0.694747
vn -0.508590 0.508590 0.694747
vn -0.508590 0.508590 0.694747
vn 0.508590 -0.508590 -0.694747
vn -0.508590 0.508590 -0.694747
vn -0.508590 0.508590 -0.694747
vn 0.508590 -0.508590 -0.694747
vn 0.694746 -0.186157 0.694747
vn 0.694746 -0.186157 0.694747
vn -0.694746 0.186157 0.694747
vn -0.694746 0.186157 0.694747
vn -0.694746 0.186157 -0.694747
vn -0.694746 0.186157 -0.694747
vn 0.694746 -0.186157 -0.694747
vn 0.694746 -0.186157 -0.694747
vn 0.694746 0.186157 0.694747
vn 0.694746 0.186157 0.694747
vn -0.694747 -0.186157 0.694747
vn -0.694746 -0.186157 0.694747
vn 0.694746 0.186157 -0.694747
vn -0.694746 -0.186157 -0.694747
vn 0.694746 0.186157 -0.694747
vn -0.694746 -0.186157 -0.694747
vn 0.508590 0.508590 0.694747
vn 0.508590 0.508590 0.694747
vn -0.508590 -0.508590 0.694747
vn -0.508590 -0.508590 0.694747
vn -0.508590 -0.508590 -0.694747
vn 0.508590 0.508590 -0.694747
vn 0.508590 0.508590 -0.694747
vn -0.508590 -0.508590 -0.694747
vn 0.186157 0.694746 0.694747
vn 0.186157 0.694746 0.694747
vn -0.186157 -0.694746 0.694747
vn -0.186157 -0.694746 0.694747
vn 0.186157 0.694746 -0.694747
vn 0.186157 0.694746 -0.694747
vn -0.186157 -0.694746 -0.694747
vn -0.186157 -0.694746 -0.694747
vn -0.186157 0.694746 0.694747
vn -0.186157 0.694746 0.694747
vn 0.186157 -0.694746 0.694747
vn 0.186157 -0.694747 0.694747
vn -0.186157 0.694746 -0.694747
vn -0.186157 0.694746 -0.694747
vn 0.186157 -0.694746 -0.694747
vn 0.186157 -0.694746 -0.694747
vn -0.508590 0.508590 0.694747
vn -0.694746 0.186157 0.694747
vn -0.694746 0.186157 0.694747
vn -0.508590 0.508590 0.694747
vn 0.694746 -0.186157 0.694747
vn 0.508590 -0.508590 0.694747
vn 0.508590 -0.508590 0.694747
vn 0.694746 -0.186157 0.694747
vn 0.694746 -0.186157 -0.694747
vn -0.694746 0.186157 -0.694747
vn -0.508590 0.508590 -0.694747
vn -0.694746 0.186157 -0.694747
vn -0.508590 0.508590 -0.694747
vn 0.508590 -0.508590 -0.694747
vn 0.694746 -0.186157 -0.694747
vn 0.508590 -0.508590 -0.694747
vn -0.974370 0.000000 -0.224951
vn -0.974370 0.000000 -0.224951
vn 0.974370 0.000000 0.224951
vn 0.974370 -0.000000 0.224951
vn -0.000000 -1.000000 0.000000
vn 0.000000 -1.000000 0.000000
vn 0.000000 1.000000 0.000000
vn 0.000000 1.000000 0.000000
vn 0.224951 0.000000 -0.974370
vn 0.224951 0.000000 -0.974370
vn -0.224951 0.000000 0.974370
vn -0.224951 0.000000 0.974370
vn 0.487185 -0.843829 -0.224951
vn 0.487185 -0.843829 -0.224951
vn -0.487185 0.843829 0.224951
vn -0.487185 0.843829 0.224951
vn 0.866025 0.500000 0.000000
vn 0.866025 0.500000 -0.000000
vn -0.866025 -0.500000 0.000000
vn -0.866025 -0.500000 0.000000
vn -0.112476 0.194813 -0.974370
vn -0.112476 0.194813 -0.974370
vn 0.112476 -0.194813 0.974370
vn 0.112476 -0.194813 0.974370
vn 0.487185 0.843829 -0.224951
vn 0.487185 0.843829 -0.224951
vn -0.487185 -0.843829 0.224951
vn -0.487185 -0.843829 0.224951
vn -0.866025 0.500000 0.000000
vn -0.866025 0.500000 0.000000
vn 0.866025 -0.500000 0.000000
vn 0.866025 -0.500000 0.000000
vn -0.112476 -0.194813 -0.974370
vn -0.112476 -0.194813 -0.974370
vn 0.112475 0.194813 0.974370
vn 0.112476 0.194813 0.974370
f 1//1 2//1 3//1
f 4//2 2//2 1//2
f 5//3 6//3 4//3
f 4//4 6//4 2//4
f 3//5 7//5 1//5
f 8//6 7//6 5//6
f 1//7 7//7 8//7
f 5//8 7//8 6//8
f 3//9 9//9 10//9
f 2//10 9//10 3//10
f 2//11 11//11 9//11
f 6//12 11//12 2//12
f 10//13 12//13 3//13
f 6//14 12//14 11//14
f 3//15 12//15 7//15
f 7//16 12//16 6//16
f 10//17 13//17 14//17
f 9//18 13//18 10//18
f 11//19 15//19 9//19
f 9//20 15//20 13//20
f 14//21 16//21 10//21
f 12//22 16//22 11//22
f 11//23 16//23 15//23
f 10//24 16//24 12//24
f 14//25 17//25 18//25
f 13//26 17//26 14//26
f 15//27 19//27 13//27
f 13//28 19//28 17//28
f 18//29 20//29 14//29
f 16//30 20//30 15//30
f 14//31 20//31 16//31
f 15//32 20//32 19//32
f 18//33 21//33 22//33
f 17//34 21//34 18//34
f 19//35 23//35 17//35
f 17//36 23//36 21//36
f 22//37 24//37 18//37
f 20//38 24//38 19//38
f 19//39 24//39 23//39
f 18//40 24//40 20//40
f 22//41 25//41 26//41
f 21//42 25//42 22//42
f 23//43 27//43 21//43
f 21//44 27//44 25//44
f 24//45 28//45 23//45
f 23//46 28//46 27//46
f 26//47 28//47 22//47
f 22//48 28//48 24//48
f 26//49 29//49 30//49
f 25//50 29//50 26//50
f 25//51 31//51 29//51
f 27//52 31//52 25//52
f 26//53 32//53 28//53
f 27//54 32//54 31//54
f 30//55 32//55 26//55
f 28//56 32//56 27//56
f 30//57 33//57 34//57
f 29//58 33//58 30//58
f 31//59 33//59 29//59
f 31//60 35//60 33//60
f 32//61 36//61 31//61
f 30//62 36//62 32//62
f 34//63 36//63 30//63
f 31//64 36//64 35//64
f 34//65 37//65 38//65
f 33//66 37//66 34//66
f 35//67 39//67 33//67
f 33//68 39//68 37//68
f 38//69 40//69 34//69
f 34//70 40//70 36//70
f 36//71 40//71 35//71
f 35//72 40//72 39//72
f 38//73 41//73 42//73
f 37//74 41//74 38//74
f 39//75 43//75 37//75
f 37//76 43//76 41//76
f 42//77 44//77 38//77
f 38//78 44//78 40//78
f 40//79 44//79 39//79
f 39//80 44//80 43//80
f 42//81 45//81 46//81
f 46//82 45//82 1//82
f 1//83 45//83 4//83
f 41//84 45//84 42//84
f 4//85 47//85 5//85
f 43//86 47//86 41//86
f 41//87 47//87 45//87
f 45//88 47//88 4//88
f 5//89 48//89 8//89
f 8//90 48//90 1//90
f 46//91 48//91 42//91
f 1//92 48//92 46//92
f 42//93 48//93 44//93
f 44//94 48//94 43//94
f 47//95 48//95 5//95
f 43//96 48//96 47//96
f 49//97 50//97 51//97
f 51//98 50//98 52//98
f 53//99 54//99 55//99
f 53//100 55//100 56//100
f 54//101 53//101 49//101
f 49//102 53//102 50//102
f 56//103 55//103 51//103
f 56//104 51//104 52//104
f 51//105 55//105 49//105
f 49//106 55//106 54//106
f 56//107 52//107 50//107
f 56//108 50//108 53//108
f 57//109 58//109 59//109
f 59//110 58//110 60//110
f 61//111 62//111 63//111
f 61//112 63//112 64//112
f 62//113 61//113 57//113
f 57//114 61//114 58//114
f 64//115 63//115 59//115
f 64//116 59//116 60//116
f 59//117 63//117 57//117
f 57//118 63//118 62//118
f 64//119 60//119 58//119
f 64//120 58//120 61//120
f 65//121 66//121 67//121
f 67//122 66//122 68//122
f 69//123 70//123 71//123
f 69//124 71//124 72//124
f 70//125 69//125 65//125
f 65//126 69//126 66//126
f 72//127 71//127 67//127
f 72//128 67//128 68//128
f 67//129 71//129 65//129
f 65//130 71//130 70//130
f 72//131 68//131 66//131
f 72//132 66//132 69//132
