# Aspose.3D Wavefront OBJ Exporter
# Copyright 2004-2020 Aspose Pty Ltd.
# File created: 10/5/2020 7:17:40 AM


#
# object obj_35065471
#

v -0.04462332278490066 -0.01642472669482231 0.02837768755853176
v -0.04800514504313469 -0.00316402176395058 -0.01474734954535961
v -0.04391944408416748 -0.01975874044001102 -0.01474503055214882
v 0.08244594931602478 -0.05138847231864929 -0.04398505762219429
v -0.01091664470732212 -0.04710652306675911 -0.01428140606731176
v -0.02498766407370567 -0.04124151170253753 -0.0147438645362854
v -0.04670876264572144 0.00789979193359613 0.02800335735082626
v -0.04693380370736122 0.01073184050619602 -0.01483427919447422
v 0.08333455771207809 0.02039194479584694 -0.04340335726737976
v -0.01451322715729475 -0.04290641099214554 0.03195251896977424
v 0.05282771587371826 -0.05118881538510323 0.03175406903028488
v 0.08402450382709503 -0.05121647566556931 0.04403350502252578
v -0.0469512902200222 -0.00140831246972084 0.02966406755149364
v -0.03511891886591911 -0.03315118700265884 -0.01481235306710004
v 0.04044605419039726 0.01883274689316749 0.05552871152758598
v 0.09959778189659118 0.04858942702412605 0.03929238393902778
v 0.09008347243070602 0.07152231782674789 0.03613409027457237
v 0.09620951116085052 -0.0512225367128849 0.04331516474485397
v 0.043445885181427 -0.01781882159411907 0.05511943623423576
v 0.01556245051324367 -0.02403352409601211 0.05630863085389137
v 0.1139213964343071 0.01936722733080387 0.03538199141621589
v 0.10387733578681946 0.01265934947878122 0.04104538261890411
v 0.11219263821840286 -0.05119871720671654 0.03719225898385048
v -0.02012521214783191 -0.0431080013513565 0.02121086791157722
v -0.02999332919716835 -0.03595830500125885 0.02904809266328811
v -0.043010875582695 0.02019516192376613 0.02785544469952583
v -0.04036691412329674 0.026330741122365 -0.01475244294852018
v 0.09667772054672242 0.01429372560232877 -0.04324353486299515
v 0.09712974727153778 -0.05120008811354637 -0.04314338788390159
v -0.00916807726025581 -0.04658660665154457 0.02167665399610996
v -0.03761853277683258 -0.02832286618649959 0.02848395705223083
v 0.12399441748857498 -0.05119747295975685 0.02545798569917679
v 0.12145311385393142 0.01844767294824123 0.02866191044449806
v 0.10868441313505172 0.07408422976732254 -0.01141249388456344
v 0.07825084030628204 0.07950890809297562 0.0242871418595314
v 0.10001298040151596 0.07525097578763962 0.02412344142794609
v 0.11802337318658828 0.06840485334396362 0.00884578377008438
v 0.12626542150974274 0.05841914564371109 -0.0002447302103973925
v 0.12024465203285218 0.06629700213670731 -0.00687881466001272
v 0.05988467857241631 0.08021447062492371 -0.01554351393133401
v 0.05775959044694901 0.08127821981906891 0.0003541141049936414
v 0.06715837121009827 0.08168089389801025 -0.00744076585397124
v 0.07731380313634872 0.07960822433233261 -0.02350874058902263
v 0.12933628261089324 -0.0511966161429882 0.01563023403286934
v -0.03145480155944824 0.02903434075415134 0.03579290583729744
v -0.01512616407126188 0.0200821254402399 0.05265332013368607
v -0.01807034946978092 0.03471065685153007 0.0405491255223751
v 0.12732939422130584 0.01796464994549751 0.01931107230484485
v -0.00512768002226948 0.02406292594969272 0.05441811680793762
v -0.00739978998899459 -0.02372443862259388 0.05414779484272003
v 0.05359738692641258 -0.05118681490421295 -0.03105871006846428
v 0.0860619992017746 0.0494970865547657 -0.04090739786624908
v 0.08237132430076599 0.07267171889543533 -0.03620878234505653
v -0.02892635762691498 0.03894465416669845 -0.01466100569814443
v 0.1091582328081131 -0.05119857937097549 -0.03884710744023323
v 0.11711102724075318 0.02064483426511287 -0.03289002552628517
v 0.1223469153046608 -0.05119986459612846 -0.0278661660850048
v 0.11139760166406632 0.07229660451412201 0.01560549717396497
v 0.06565465778112411 0.08133355528116226 0.01333474367856979
v 0.11385630071163178 0.07043377310037613 -0.01602083258330822
v 0.1099795401096344 0.06809243559837341 -0.0272041242569685
v 0.10009974241256714 0.07522797584533691 -0.02390149980783462
v 0.09538357704877854 0.07033713907003403 -0.03567207232117653
v 0.01505108643323183 0.02408519759774208 0.05620598047971725
v 0.10243730992078782 0.06808838248252869 0.03379762172698974
v 0.07431790977716446 0.07476779818534851 0.0339185930788517
v 0.12987357378005982 -0.05119942873716354 -0.01432191301137209
v 0.13220776617527008 -0.05119945853948593 0.00135004159528762
v 0.06233859062194824 0.07781445235013962 0.02407779172062874
v -0.03973336890339851 -0.01068591699004173 0.03740617260336876
v -0.0358685553073883 0.00566875515505671 0.04211688414216041
v -0.04036758467555046 0.01493028458207845 0.03545672073960304
v -0.02761589176952839 0.02141116000711918 0.04383460059762001
v -0.02239697426557541 -0.01188383623957634 0.05105921998620033
v -0.0317825935781002 -0.02537360414862633 0.03874998912215233
v -0.02517275512218475 0.04027676209807396 0.02204581163823604
v 0.12586070597171784 0.02017528750002384 -0.02223555743694305
v 0.1034218892455101 0.04210978746414184 -0.03890884295105934
v 0.12476354092359542 0.04340267553925514 0.01951869390904903
v 0.1213802993297577 0.06309869140386581 0.01520539913326501
v 0.11885715276002884 0.05236553400754929 0.02657788246870041
v 0.08683063089847565 0.0767536535859108 -0.02905084751546383
v 0.05564170703291893 0.07945302873849869 0.01223506685346365
v -0.02322525903582573 0.03942680731415748 0.03126408159732818
v 0.08852533251047134 0.07675829529762268 0.02798082493245601
v 0.13142119348049164 0.02185284718871116 0.00624909158796072
v -0.01713151857256889 -0.03545670211315155 0.04068312793970108
v -0.0349794328212738 0.03142459690570831 0.0285097099840641
v 0.12010972201824188 0.04262460768222809 -0.02735472284257412
v 0.10358476638793946 0.06555993854999542 -0.03387775644659996
v -0.02369915880262851 0.00757398130372166 0.05065073817968369
v 0.13134798407554626 0.00939642358571291 -0.00799756497144699
v 0.12907937169075012 0.04529563710093498 -0.00663166958838701
v 0.1243681162595749 0.04872685298323631 -0.01819491013884544
v 0.11056654155254364 0.06775890290737152 0.02695051394402981
v 0.12821502983570098 0.04997071623802185 0.00570603786036372
v 0.1212766319513321 0.06327648460865021 -0.01513234712183475
v 0.07007678598165512 0.07614552974700928 -0.0309477299451828
v 0.10949071496725082 0.01067715510725975 -0.03842167556285858
v 0.1098078265786171 0.04604394361376762 0.03507706895470619
v 0.1129394844174385 0.0455499067902565 -0.03317546099424362
v 0.11762547492980958 0.0590653158724308 -0.02489774860441684
# 102 vertices

vn -0.97100007534027104 -0.23906461894512176 0.00263384450227022
vn -0.25400185585021972 -0.6647824048995972 -0.70252931118011472
vn -0.996982991695404 0.07693074643611908 0.01032342575490474
vn -0.23903444409370424 -0.05898688733577728 -0.96921771764755248
vn -0.2150040715932846 0.01046721916645765 -0.97655707597732544
vn -0.21495440602302552 0.01057502347975969 -0.97656691074371344
vn -0.11589252203702926 -0.94927972555160528 0.292295902967453
vn -0.98737633228302 -0.1556052416563034 0.02958133444190025
vn -0.27660220861434936 -0.35394346714019776 -0.8934288620948792
vn -0.26180902123451232 -0.16726331412792206 -0.9505151510238648
vn 0.16396094858646392 0.20102794468402864 0.96576631069183344
vn 0.08751611411571503 -0.20616646111011504 0.97459542751312256
vn 0.48579004406929016 0.010520257987082 0.87401229143142704
vn -0.38484439253807064 -0.92297220230102544 0.00413209339603781
vn -0.62393510341644288 -0.78114002943038944 0.02291996031999588
vn -0.92165493965148928 0.38800847530364992 -0.00131807988509535
vn -0.99929445981979376 0.03005479648709297 0.02252443134784698
vn 0.05724024027585983 -0.00113154365681111 -0.99835973978042608
vn -0.07695303112268448 -0.99686938524246208 0.01815567910671234
vn -0.83561140298843376 -0.54916703701019288 0.01299991738051176
vn 0.70505940914154056 -0.00689468625932931 0.70911473035812376
vn 0.1921023428440094 0.98126536607742304 0.01465933956205845
vn 0.78300279378890992 0.62141853570938112 0.02730840817093849
vn -0.10956713557243348 0.99067878723144528 -0.08093550056219101
vn 0.17392997443675994 0.98475712537765504 -0.00136360502801835
vn 0.05617927387356758 -0.28994184732437132 0.9553939700126648
vn -0.00085892621427774 -0.9999807476997376 -0.00613727234303951
vn 0.00080014177365228 -0.99999940395355232 0.00070093275280669
vn 0.00058189959963783 -0.9999998211860656 0.00022681379050482064
vn -0.47103121876716616 0.50414437055587768 0.72385638952255248
vn -0.11635009199380874 -0.95272135734558112 0.28068628907203676
vn 0.35773012042045592 -0.00976087991148233 0.9337740540504456
vn 0.8785983324050904 7.855105650378391E-05 0.47756147384643552
vn -0.09370555728673934 -0.00117652199696749 0.99559932947158816
vn -0.30356940627098084 -0.95238202810287472 0.02853241562843323
vn -0.30464512109756468 -0.93592697381973264 0.17672602832317352
vn -0.06332968175411224 -0.99799239635467536 -0.00080775620881468
vn -0.13392023742198944 -0.94940543174743648 -0.28406813740730284
vn -0.21969079971313476 0.10377412289381028 -0.9700344800949096
vn -0.22010321915149688 0.09775183349847794 -0.97056639194488528
vn -0.25328198075294496 0.23652116954326628 -0.9380329847335816
vn 0.63983684778213504 -0.00710702175274491 -0.76847779750823968
vn 0.01559015549719333 0.00790963694453239 -0.9998471140861512
vn 0.27605405449867248 0.96047419309616096 0.03582747653126716
vn -0.03081024065613746 0.99942040443420416 0.01447886880487203
vn 0.47545361518859864 0.81341350078582768 -0.33511540293693544
vn 0.07787543535232544 0.20999948680400848 -0.97459506988525392
vn 0.19719314575195312 0.98036289215087888 -0.0018283239332959
vn 0.1216539517045021 0.9922477006912232 0.02539394982159137
vn 0.02716021053493023 0.00242111459374427 0.9996281266212464
vn 0.0442846342921257 -0.00753083312883973 0.9989905953407288
vn 0.24226723611354828 0.23030817508697508 0.94247800111770624
vn -0.03621018677949905 0.4374582469463348 0.8985092639923096
vn 0.00019733456429094076 -0.9999999403953552 -0.00020118177053518593
vn -0.0005740990745835 -0.9999998807907104 8.359537605429068E-05
vn 0.00050280167488381 -0.9999998807907104 0.00010305922478437424
vn 0.01371867675334215 -0.9997848272323608 -0.01556333620101213
vn -0.10529398918151856 0.95418941974639888 0.28006386756896972
vn -0.74185097217559808 -0.01777010038495063 0.67032933235168456
vn -0.61544340848922728 0.24074333906173708 0.75051456689834592
vn 0.22305327653884888 0.00786127615720033 0.97477453947067264
vn 0.6659478545188904 0.00282260891981422 0.7459930181503296
vn -0.20361126959323884 -0.00251141982153058 0.9790485501289368
vn -0.08825705945491791 0.00118702801410108 0.99609702825546272
vn -0.0781167596578598 0.47644373774528504 0.87572777271270752
vn -0.08414459973573685 -0.57834827899932864 0.81143879890441888
vn -0.62268054485321048 -0.58331173658370968 0.52155190706253048
vn -0.56841933727264408 -0.82202798128128048 0.03419867902994156
vn -0.2277933359146118 0.15850739181041718 -0.96072143316268928
vn -0.63547599315643312 0.38563206791877744 0.66892319917678832
vn -0.44053271412849424 0.89764988422393792 0.01247206889092922
vn -0.00023122936545405537 -1 0.0001601032417966053
vn 0.77300804853439328 0.01198195293545723 -0.6342830657958984
vn 0.33636319637298584 0.00088153209071606 -0.941731870174408
vn 0.16123662889003754 0.1136786937713623 -0.9803468585014344
vn -0.86157393455505376 -0.5070093274116516 0.02513609640300274
vn -0.72233045101165776 -0.3356972634792328 0.60460418462753296
vn 0.84682542085647584 0.00643371418118476 0.53183209896087648
vn 0.87322741746902464 0.24255719780921936 0.42265802621841432
vn 0.56414359807968136 0.82541680335998528 -0.02071592211723327
vn 0.56658822298049928 0.82344216108322144 -0.03034345246851444
vn 0.5106965899467468 0.85974270105361936 0.00559885473921895
vn 0.1879780739545822 0.9813851714134216 -0.0393373854458332
vn 0.18249058723449708 0.96581888198852544 -0.18409542739391328
vn 0.08241680264472961 0.274958997964859 0.95791709423065184
vn -0.0024087312631309 -0.99994480609893792 0.01022426318377256
vn -0.36393985152244568 0.87232267856597904 0.3264978528022766
vn -0.45051619410514832 0.5305593013763428 0.71801251173019408
vn 0.1899215281009674 0.96340870857238768 0.1891387701034546
vn 0.22327934205532072 0.00739032076671719 0.97472643852233888
vn 0.2288780063390732 0.0746154859662056 0.97059130668640144
vn 0.98037260770797728 -0.00266424217261374 0.19713537395000456
vn -0.47210955619812008 -0.3920093774795532 0.78958296775817872
vn -0.17487868666648864 0.00274525815621018 0.9845861196517944
vn -0.13206806778907776 -0.69808936119079592 0.70372521877288816
vn -0.70846873521804808 -0.7047351598739624 0.03768878430128097
vn -0.9572696685791016 0.28819262981414796 0.02408164739608764
vn -0.7407014966011048 0.6717055439949036 0.01315107010304927
vn 0.77284699678421024 0.05379841849207878 -0.63230788707733152
vn 0.47698953747749328 0.56645447015762328 -0.67201960086822512
vn 0.04885055497288704 0.08079585433006287 -0.99553292989730832
vn -0.76760411262512208 0.0840393528342247 0.63539057970047
vn -0.57181298732757568 -0.02105089090764522 0.82011389732360832
vn -0.72928893566131584 -0.4245615303516388 0.53654927015304568
vn 0.98905211687088016 -0.00869082938879728 -0.14731016755104064
vn 0.99592405557632448 0.06530337780714035 -0.06221526488661766
vn 0.93145120143890384 0.09827641397714614 -0.3503432869911194
vn 0.42508521676063536 0.77514940500259392 0.4673820436000824
vn 0.91253238916397088 0.23070642352104188 0.33772629499435424
vn 0.74924725294113152 0.3905842304229736 0.53485751152038576
vn 0.6946547627449036 0.69920259714126584 -0.16902780532836914
vn 0.66815894842147824 0.64714384078979496 -0.36710822582244872
vn 0.27587532997131348 0.84343290328979488 -0.46099218726158144
vn 0.01659503765404224 0.90019571781158448 -0.43516936898231504
vn 0.02619454637169838 0.861270010471344 -0.50747197866439816
vn -0.37755542993545536 0.80260920524597168 -0.46181204915046688
vn -0.19552344083786012 0.9739601612091064 0.11477002501487732
vn -0.29604196548461916 0.77517330646514896 0.5580909252166748
vn -0.62014061212539672 -0.07828549295663834 0.78057485818862912
vn 0.06990371644496918 0.88339012861251824 0.46339556574821472
vn 0.10048335045576096 0.84579449892044064 0.5239607095718384
vn 0.95322030782699584 0.01158432010561227 0.30205437541007996
vn 0.94976252317428592 0.11392758041620254 0.29149898886680604
vn 0.94201707839965824 0.09238576143980026 0.3225969970226288
vn -0.60836100578308104 -0.26073572039604188 0.74960905313491824
vn -0.14098452031612396 -0.77358627319335936 0.61780875921249392
vn -0.35338449478149416 0.55312448740005496 0.7544353008270264
vn -0.28058338165283204 0.35657596588134764 -0.89113771915435792
vn -0.65502434968948368 0.75456941127777104 0.03959832340478897
vn -0.42928394675254824 0.90104597806930544 0.06189872324466705
vn 0.87409079074859616 -0.00471251504495739 -0.48573961853981016
vn 0.36550399661064144 0.05616926774382591 -0.92911344766616816
vn 0.5853639245033264 0.00242899940349161 -0.81076705455780032
vn -0.8102309107780456 0.12334048748016358 0.57298606634140016
vn -0.81548166275024416 -0.17371772229671478 0.55209761857986448
vn -0.43481576442718504 -0.8669899702072144 0.2434411197900772
vn -0.43026047945022584 -0.74633336067199712 0.50780171155929568
vn -0.50916415452957152 -0.62674224376678464 0.58986943960189816
vn 0.99981087446212768 0.01180213131010532 -0.01545649301260709
vn 0.6691855192184448 0.09648917615413666 0.73680424690246576
vn 0.93647170066833504 0.01379192434251308 -0.35047173500061036
vn 0.91907238960266112 0.25798767805099488 -0.29790666699409484
vn 0.97633099555969232 0.21586628258228304 -0.01339857932180166
vn 0.64820575714111328 0.68945050239562992 0.3232450485229492
vn 0.61870092153549192 0.31580889225006104 0.71935665607452392
vn 0.414806455373764 0.19033151865005492 0.88978058099746704
vn 0.82879644632339472 0.5509043335914612 -0.0979841873049736
vn 0.92022848129272464 0.34392935037612916 0.18679448962211608
vn 0.66276156902313232 0.7088012099266052 0.24155314266681672
vn 0.31758001446723936 0.19680227339267732 -0.92758381366729744
vn -0.41950464248657224 0.90027028322219856 -0.11631574481725692
vn -0.10206663608551026 0.9083890914916992 0.40547731518745424
vn 0.16820262372493744 0.80754864215850832 -0.56530797481536864
vn -0.1156393364071846 0.93879377841949456 -0.32449007034301756
vn -0.03358608856797218 0.98830986022949216 -0.14871320128440856
vn -0.2322285920381546 0.65468609333038328 0.71934425830841064
vn -0.43968358635902408 -0.49522057175636288 0.74928957223892208
vn -0.234031081199646 0.00474789552390575 0.97221755981445312
vn -0.81384193897247312 0.58014625310897824 0.03303993493318557
vn -0.8424594402313232 0.25905615091323852 0.47238963842391968
vn -0.715798020362854 0.48253878951072696 0.50476670265197752
vn -0.48367506265640256 0.64217054843902584 0.5947061777114868
vn -0.7118500471115112 0.43672966957092288 0.5500333905220032
vn 0.35332855582237244 0.00453335372731089 -0.93548840284347536
vn 0.49513253569602968 0.07301126420497894 -0.86574423313140864
vn 0.61289244890213016 0.33644926548004152 -0.71495789289474488
vn 0.50993549823760984 0.0851888433098793 -0.8559839725494384
vn 0.82069694995880128 0.0974060520529747 0.56299960613250736
vn 0.8457903265953064 0.08100854605436325 0.52732944488525392
vn 0.85601794719696048 0.27413767576217652 -0.43827152252197264
vn 0.94771605730056768 0.07172075659036636 -0.31095057725906372
vn 0.47545304894447328 0.80426579713821408 0.35651236772537232
vn 0.92908442020416256 0.30267423391342164 -0.21258048713207244
vn 0.80084872245788576 0.59437739849090576 0.07319124042987823
vn 0.42861959338188168 0.87771630287170416 -0.21424125134944916
vn 0.40035736560821536 0.77824592590332032 -0.48378428816795352
vn 0.72519892454147344 0.49088087677955624 -0.48282760381698608
vn 0.18091660737991332 0.16274072229862214 -0.96994048357009888
vn 0.45774364471435544 0.18346279859542848 -0.86994946002960208
vn -0.28987228870391844 0.75598061084747312 0.58691340684890744
vn -0.20499570667743684 0.9470933675765992 0.24696336686611176
vn 0.31856596469879152 0.7982544898986816 0.51118040084838864
vn 0.39952182769775392 0.09208589047193528 0.91208684444427488
vn 0.44885292649269104 0.07938773930072784 0.89007216691970832
vn 0.63977169990539552 0.10735223442316056 0.76103067398071296
vn -0.58293336629867552 0.22025397419929504 0.78209775686264032
vn -0.41311812400817872 0.89471274614334112 0.16977229714393616
vn -0.5659101605415344 0.6621800065040588 0.49118563532829288
vn -0.58280789852142336 0.78865706920623776 0.19584421813488008
vn 0.65146440267562864 0.10049978643655776 -0.75199329853057856
vn 0.8699214458465576 0.1134033128619194 -0.47997546195983888
vn 0.82916462421417232 0.20311939716339112 -0.52079600095748904
vn 0.99315589666366576 0.1137562021613121 0.02647204883396625
vn 0.57207041978836056 0.236846923828125 0.78526365756988528
vn 0.27137511968612672 0.83260357379913328 0.48283204436302184
vn -0.54215651750564576 0.2427988648414612 0.80443465709686272
vn 0.60190880298614504 0.2548314929008484 -0.75681346654891968
vn 0.66619831323623656 0.20770782232284544 -0.71626627445220944
vn -8.638014696771279E-05 -0.9999998807907104 -0.0003600545460358262
vn -0.00086990697309374 -0.99999964237213136 -4.2528510675765574E-05
# 200 vertex normals

g obj_35065471
s 1
f 1//1 2//1 3//1
f 4//2 5//2 6//2
f 7//3 8//3 2//3
f 2//4 4//4 3//4
f 8//5 4//5 2//5
f 9//6 4//6 8//6
f 10//7 11//7 12//7
f 13//8 2//8 1//8
f 4//9 6//9 14//9
f 4//10 14//10 3//10
f 15//11 16//11 17//11
f 18//12 19//12 20//12
f 21//13 22//13 23//13
f 5//14 24//14 6//14
f 14//15 6//15 25//15
f 8//16 26//16 27//16
f 7//17 2//17 13//17
f 4//18 28//18 29//18
f 30//19 5//19 11//19
f 14//20 31//20 3//20
f 32//21 33//21 23//21
f 34//22 35//22 36//22
f 37//23 38//23 39//23
f 40//24 41//24 42//24
f 34//25 43//25 35//25
f 12//26 18//26 20//26
f 18//27 12//27 23//27
f 32//28 23//28 12//28
f 32//29 12//29 44//29
f 45//30 46//30 47//30
f 10//31 30//31 11//31
f 18//32 23//32 22//32
f 48//33 32//33 44//33
f 49//34 50//34 20//34
f 30//35 24//35 5//35
f 24//36 30//36 10//36
f 51//37 11//37 5//37
f 51//38 5//38 4//38
f 52//39 9//39 27//39
f 8//40 27//40 9//40
f 53//41 27//41 54//41
f 55//42 56//42 57//42
f 4//43 9//43 28//43
f 36//44 58//44 34//44
f 41//45 59//45 42//45
f 60//46 61//46 62//46
f 52//47 53//47 63//47
f 43//48 42//48 35//48
f 35//49 42//49 59//49
f 20//50 15//50 64//50
f 19//51 15//51 20//51
f 16//52 65//52 17//52
f 66//53 64//53 17//53
f 55//54 67//54 29//54
f 44//55 67//55 68//55
f 12//56 67//56 44//56
f 67//57 4//57 29//57
f 69//58 35//58 59//58
f 70//59 71//59 13//59
f 72//60 71//60 73//60
f 22//61 19//61 18//61
f 33//62 21//62 23//62
f 50//63 46//63 74//63
f 49//64 20//64 64//64
f 66//65 49//65 64//65
f 12//66 20//66 50//66
f 75//67 31//67 25//67
f 24//68 25//68 6//68
f 52//69 27//69 53//69
f 45//70 72//70 73//70
f 76//71 41//71 54//71
f 57//72 67//72 55//72
f 56//73 77//73 57//73
f 28//74 55//74 29//74
f 28//75 52//75 78//75
f 31//76 1//76 3//76
f 70//77 1//77 75//77
f 32//78 48//78 33//78
f 79//79 80//79 81//79
f 60//80 34//80 39//80
f 34//81 37//81 39//81
f 58//82 37//82 34//82
f 34//83 62//83 43//83
f 82//84 43//84 62//84
f 15//85 17//85 64//85
f 67//86 51//86 4//86
f 69//87 83//87 84//87
f 46//88 45//88 73//88
f 35//89 85//89 36//89
f 19//90 22//90 15//90
f 22//91 16//91 15//91
f 68//92 86//92 44//92
f 50//93 74//93 75//93
f 46//94 50//94 49//94
f 12//95 50//95 87//95
f 31//96 14//96 25//96
f 8//97 7//97 26//97
f 27//98 88//98 54//98
f 89//99 77//99 56//99
f 61//100 90//100 63//100
f 52//101 28//101 9//101
f 71//102 72//102 13//102
f 91//103 71//103 74//103
f 1//104 31//104 75//104
f 92//105 68//105 67//105
f 86//106 92//106 93//106
f 94//107 93//107 77//107
f 65//108 95//108 36//108
f 80//109 79//109 96//109
f 80//110 95//110 81//110
f 39//111 97//111 60//111
f 97//112 61//112 60//112
f 62//113 63//113 82//113
f 43//114 82//114 98//114
f 53//115 98//115 82//115
f 54//116 40//116 98//116
f 59//117 41//117 83//117
f 84//118 47//118 66//118
f 74//119 71//119 70//119
f 35//120 66//120 85//120
f 85//121 66//121 17//121
f 44//122 86//122 48//122
f 79//123 86//123 96//123
f 86//124 79//124 48//124
f 70//125 75//125 74//125
f 87//126 10//126 12//126
f 46//127 49//127 47//127
f 53//128 54//128 98//128
f 54//129 88//129 76//129
f 76//130 83//130 41//130
f 77//131 67//131 57//131
f 78//132 99//132 28//132
f 55//133 99//133 56//133
f 72//134 7//134 13//134
f 13//135 1//135 70//135
f 24//136 10//136 25//136
f 87//137 25//137 10//137
f 75//138 25//138 87//138
f 92//139 86//139 68//139
f 81//140 21//140 33//140
f 77//141 92//141 67//141
f 94//142 97//142 93//142
f 38//143 96//143 93//143
f 80//144 58//144 95//144
f 65//145 81//145 95//145
f 100//146 65//146 16//146
f 39//147 38//147 97//147
f 38//148 80//148 96//148
f 37//149 58//149 80//149
f 90//150 78//150 63//150
f 54//151 41//151 40//151
f 35//152 69//152 66//152
f 82//153 63//153 53//153
f 43//154 98//154 40//154
f 40//155 42//155 43//155
f 49//156 66//156 47//156
f 87//157 50//157 75//157
f 46//158 91//158 74//158
f 26//159 88//159 27//159
f 26//160 7//160 72//160
f 45//161 88//161 26//161
f 84//162 45//162 47//162
f 45//163 26//163 72//163
f 28//164 99//164 55//164
f 78//165 101//165 56//165
f 102//166 90//166 61//166
f 78//167 56//167 99//167
f 33//168 79//168 81//168
f 79//169 33//169 48//169
f 102//170 97//170 94//170
f 93//171 92//171 77//171
f 58//172 36//172 95//172
f 93//173 97//173 38//173
f 37//174 80//174 38//174
f 34//175 60//175 62//175
f 61//176 63//176 62//176
f 97//177 102//177 61//177
f 63//178 78//178 52//178
f 90//179 101//179 78//179
f 66//180 69//180 84//180
f 83//181 69//181 59//181
f 17//182 65//182 36//182
f 16//183 22//183 100//183
f 100//184 22//184 21//184
f 81//185 100//185 21//185
f 71//186 91//186 73//186
f 83//187 76//187 84//187
f 84//188 88//188 45//188
f 76//189 88//189 84//189
f 56//190 101//190 89//190
f 77//191 89//191 94//191
f 102//192 94//192 89//192
f 96//193 86//193 93//193
f 81//194 65//194 100//194
f 85//195 17//195 36//195
f 91//196 46//196 73//196
f 90//197 102//197 101//197
f 101//198 102//198 89//198
f 67//199 12//199 51//199
f 12//200 11//200 51//200
#200 polygons

