# Blender v2.79 (sub 0) OBJ File: ''
# www.blender.org
mtllib mug_0_collision.mtl
o Cylinder.000_Cylinder.002
v 0.049517 -0.002484 0.049698
v 0.015310 -0.045882 -0.048910
v -0.017293 -0.045677 -0.048912
v -0.023899 0.043739 -0.048817
v 0.049458 0.005107 -0.048864
v -0.042786 -0.013866 -0.041297
v -0.044681 -0.008947 0.049546
v -0.011116 -0.044198 0.049577
v -0.021308 -0.039598 -0.040500
v -0.006717 0.045143 0.049748
v -0.039027 0.023331 0.049528
v 0.045089 -0.002104 -0.041031
v 0.025759 0.042284 0.049678
v 0.020202 0.040095 -0.041074
v -0.008911 -0.043743 -0.041322
v 0.028548 -0.034785 -0.039404
v 0.027030 -0.036537 -0.040593
v -0.032995 -0.030226 -0.041372
v -0.015769 0.042825 0.049715
v 0.034785 -0.028548 -0.039404
v 0.031820 -0.031820 -0.039404
v -0.044550 -0.021019 0.049941
v 0.006827 -0.044459 -0.040789
v -0.045457 0.004482 0.049687
v 0.013148 -0.043632 0.049548
v -0.033418 0.030908 0.049550
v -0.030584 0.033155 -0.040376
v 0.032049 0.031118 -0.041262
v 0.003433 0.044525 -0.041292
v 0.036143 0.032945 0.049984
v -0.001299 -0.021890 -0.044713
v 0.002306 0.025083 -0.045276
v 0.023722 -0.008588 -0.045212
v 0.017230 0.009701 -0.044570
v -0.023936 -0.011364 -0.045504
v -0.018936 0.011798 -0.044804
v 0.049362 -0.007488 -0.047941
v 0.045346 -0.021528 -0.047688
v 0.036296 -0.034089 -0.048846
v 0.022286 -0.044969 -0.047894
v 0.002905 -0.050111 -0.047807
v -0.016655 -0.047416 -0.047311
v -0.031579 -0.038914 -0.047306
v -0.039128 -0.029483 -0.048915
v -0.044429 -0.023775 -0.047705
v -0.049551 -0.006292 -0.047830
v -0.049172 0.007079 -0.048852
v -0.045642 0.020892 -0.047819
v -0.035544 0.035254 -0.047705
v -0.009864 0.048761 -0.048898
v 0.003822 0.049481 -0.048778
v 0.016930 0.047265 -0.047665
v 0.032013 0.038480 -0.047787
v 0.039156 0.030466 -0.048891
v 0.046316 0.019137 -0.047342
v -0.008679 -0.049024 0.049377
v -0.016725 -0.046707 0.049649
v 0.048094 -0.011580 0.049716
v 0.030861 -0.039091 0.049396
v 0.045674 -0.000132 0.049689
v 0.046389 -0.018047 0.049392
v 0.016700 -0.046542 0.049855
v -0.025520 -0.042561 0.049627
v -0.049508 -0.004908 0.049296
v 0.042579 -0.025502 0.049624
v -0.032946 -0.036913 0.049716
v -0.040235 -0.029744 0.049249
v 0.036699 -0.033322 0.049711
v -0.025517 0.037917 0.049699
v 0.025051 -0.042643 0.049743
v 0.044870 0.021153 0.049660
v 0.030618 -0.033809 0.049721
v 0.007041 0.049074 0.049705
v -0.046535 0.018032 0.049164
v -0.042656 0.025282 0.049693
v 0.032272 0.038051 0.049179
v 0.017870 0.046445 0.049593
v -0.034256 0.036218 0.049399
v 0.041239 -0.019547 0.049742
v -0.021739 0.044972 0.049339
v -0.049694 0.003763 0.049370
v -0.007487 0.048558 0.049852
v -0.013643 0.047986 0.049177
v 0.040906 0.028524 0.049164
v -0.001938 -0.049400 0.049749
v -0.000864 0.049875 0.049183
v -0.023778 -0.038949 0.049719
v -0.041233 -0.019600 0.049708
v -0.014623 0.042632 -0.041041
v 0.037327 -0.024941 -0.040083
v 0.039771 -0.020488 -0.041125
v 0.027759 -0.033901 -0.041635
v 0.041108 0.017933 -0.041157
v -0.037305 0.024253 -0.041389
v 0.034461 -0.028281 -0.040696
v 0.034461 -0.028281 -0.040696
v 0.031523 -0.031523 -0.040696
v 0.031523 -0.031523 -0.040696
v 0.028281 -0.034461 -0.040696
v -0.044339 0.007844 -0.041151
v 0.034785 -0.028548 -0.039404
v 0.031820 -0.031820 -0.039404
v 0.044840 0.008457 0.049770
v 0.042273 0.017447 0.049726
v 0.036638 0.027115 0.049677
v 0.030588 0.033680 0.049569
v 0.021573 0.040139 0.049546
v 0.013817 0.043718 0.049831
v 0.007293 -0.049185 0.049476
v 0.004913 0.045465 0.049705
v -0.042978 0.015359 0.049747
v -0.048270 -0.011975 0.049471
v -0.048556 -0.000220 0.050067
v -0.048097 0.011667 0.049698
v -0.036633 -0.027128 0.049605
v -0.030679 -0.033648 0.049572
v -0.037561 0.030373 0.050170
v -0.025287 0.042067 0.049892
v -0.017017 -0.042581 0.049828
v -0.000055 -0.045733 0.049732
v 0.023141 -0.039335 0.049723
v 0.036597 -0.027165 0.049668
v 0.044229 -0.011104 0.049708
v 0.047907 0.013602 0.049396
v 0.049019 0.006893 0.049695
v -0.046259 -0.000452 0.037672
v -0.045926 0.003662 0.038418
v -0.046723 -0.002769 0.032199
v -0.046871 0.002901 0.029046
v -0.046723 0.008570 0.032198
v -0.046325 0.006481 0.037419
v -0.063352 0.004902 0.036202
v -0.063713 -0.002835 0.034482
v -0.066071 0.001215 0.028166
v -0.065831 0.006048 0.028873
v -0.065146 0.008676 0.033484
v -0.068831 -0.002144 0.031819
v -0.075222 -0.002732 0.021833
v -0.072996 -0.001478 0.019901
v -0.072515 0.004660 0.018735
v -0.073843 0.008657 0.021999
v -0.075768 0.006825 0.024464
v -0.079131 0.004340 -0.012735
v -0.077585 -0.002744 -0.014038
v -0.075296 -0.001596 -0.009768
v -0.074543 0.004606 -0.009707
v -0.076673 0.008769 -0.013421
v -0.069428 -0.001361 -0.022695
v -0.073812 0.007102 -0.022484
v -0.067865 -0.002392 -0.027666
v -0.068618 0.005938 -0.022363
v -0.067405 0.008507 -0.026993
v -0.066757 0.004757 -0.029517
v -0.048257 0.004358 -0.025795
v -0.047846 -0.002909 -0.031174
v -0.047433 0.005954 -0.033553
v -0.047070 0.002154 -0.034184
v -0.048198 -0.001330 -0.026873
v -0.048013 0.008532 -0.028587
vn 0.6386 0.2865 0.7142
vn 0.7111 0.2210 0.6675
vn 0.8340 0.1975 0.5153
vn 0.2471 -0.6562 0.7130
vn 0.2429 -0.7190 0.6512
vn 0.0969 -0.6804 0.7264
vn 0.6295 -0.2287 0.7426
vn 0.6213 -0.3637 0.6940
vn 0.7148 -0.4014 0.5726
vn 0.5896 0.4474 0.6724
vn -0.4578 0.5056 0.7313
vn -0.4863 0.7252 0.4874
vn -0.3349 0.5925 0.7327
vn -0.0059 0.6722 0.7404
vn 0.1360 0.7164 0.6843
vn 0.2034 0.8318 -0.5164
vn -0.6067 -0.7884 0.1016
vn -0.4986 0.4978 0.7097
vn -0.5585 0.4086 0.7219
vn -0.6847 0.3029 0.6629
vn 0.5680 0.6380 -0.5199
vn 0.5517 0.4844 0.6789
vn -0.1933 0.6852 0.7022
vn -0.1323 0.7762 0.6165
vn -0.6055 0.2848 0.7432
vn -0.5893 -0.4216 0.6892
vn -0.5300 -0.5050 0.6812
vn -0.6846 -0.2854 0.6707
vn 0.3334 0.5759 0.7465
vn -0.0577 -0.7342 0.6764
vn -0.0940 -0.6571 0.7479
vn -0.6602 0.1627 0.7332
vn 0.4035 0.7373 0.5418
vn -0.1317 0.6781 -0.7231
vn 0.0778 -0.0493 -0.9958
vn -0.3275 0.6166 -0.7159
vn 0.0366 0.6871 -0.7256
vn -0.0116 -0.1049 -0.9944
vn -0.4310 -0.3666 -0.8245
vn 0.0059 0.0897 -0.9960
vn -0.1623 -0.3713 -0.9142
vn 0.5464 0.4095 -0.7306
vn -0.6835 0.0964 -0.7236
vn 0.1021 0.0505 -0.9935
vn 0.6849 0.0746 -0.7248
vn -0.1010 0.0436 -0.9939
vn -0.0661 -0.0429 -0.9969
vn 0.5036 -0.4818 -0.7171
vn 0.7956 -0.1383 -0.5898
vn 0.7476 -0.3460 -0.5669
vn -0.5520 -0.6857 -0.4745
vn -0.2879 -0.8915 -0.3499
vn -0.7617 -0.3773 -0.5268
vn -0.8099 -0.1234 -0.5734
vn -0.5966 0.5614 -0.5735
vn -0.7251 0.3548 -0.5902
vn 0.2986 0.7690 -0.5652
vn -0.4829 -0.5525 0.6794
vn -0.3346 -0.6861 0.6461
vn 0.5509 -0.6327 0.5443
vn 0.5608 -0.5354 0.6315
vn 0.7382 -0.1231 0.6633
vn 0.6966 -0.0401 0.7164
vn 0.4046 -0.5766 0.7098
vn -0.6616 -0.1247 0.7394
vn -0.7486 0.0310 0.6623
vn -0.0330 0.0230 -0.9992
vn -0.7150 0.2671 -0.6461
vn -0.0721 0.0630 0.5200
vn -0.2248 0.1918 0.9553
vn -0.4176 0.3789 0.8259
vn -0.3938 0.3423 0.8531
vn -0.2751 0.2781 0.9203
vn 0.0423 -0.3016 0.9525
vn -0.4410 0.4043 0.8013
vn -0.4362 -0.8868 -0.1529
vn 0.3106 0.2840 0.9071
vn -0.0171 -0.0671 0.9976
vn -0.1498 0.1229 0.9810
vn -0.2384 -0.0061 0.9712
vn -0.7836 -0.2137 0.5834
vn -0.6263 -0.2904 0.7235
vn -0.2558 0.3768 0.8902
vn -0.5737 0.6110 0.5454
vn 0.0376 0.0864 0.9955
vn 0.2390 -0.6601 0.7122
vn 0.7784 -0.3014 0.5507
vn 0.7011 -0.1491 0.6973
vn 0.6252 -0.3880 0.6772
vn 0.5227 -0.6619 0.5373
vn 0.5441 -0.4732 0.6929
vn 0.3446 -0.6278 0.6980
vn -0.6774 -0.4997 0.5399
vn -0.4718 -0.5491 0.6898
vn 0.1171 0.7139 0.6904
vn -0.8586 -0.0883 0.5049
vn -0.8530 0.0766 0.5162
vn -0.6810 0.0059 0.7322
vn 0.7265 -0.0370 0.6862
vn -0.8256 0.3189 0.4656
vn -0.6960 0.1590 0.7002
vn -0.6469 0.3878 0.6566
vn 0.6611 0.3040 0.6860
vn 0.7197 0.0813 0.6895
vn -0.3674 0.7547 0.5435
vn -0.0743 0.5076 0.8584
vn -0.2306 0.8339 0.5014
vn -0.0194 0.8801 0.4744
vn 0.5699 0.6711 0.4741
vn 0.3678 0.6384 0.6761
vn 0.7216 0.5069 0.4716
vn 0.8024 0.2271 0.5519
vn -0.3828 -0.6298 0.6759
vn -0.6140 -0.2636 0.7440
vn 0.2684 0.7037 0.6578
vn 0.0429 -0.8224 -0.5673
vn 0.3847 -0.7630 -0.5194
vn -0.1461 -0.8307 0.5372
vn 0.8338 0.3425 -0.4330
vn 0.5047 0.6612 -0.5551
vn -0.1489 0.5078 0.8485
vn -0.1176 -0.4716 0.8739
vn -0.9235 0.0052 0.3836
vn -0.3405 0.1655 0.9256
vn 0.0661 -0.9534 -0.2945
vn 0.5734 -0.2848 -0.7682
vn 0.0916 -0.0018 -0.9958
vn 0.4535 0.5290 -0.7173
vn 0.0647 0.9532 -0.2953
vn 0.7209 -0.6370 -0.2730
vn -0.1968 -0.8617 0.4677
vn 0.9392 0.1854 -0.2890
vn 0.0067 0.9946 -0.1040
vn -0.3157 0.8735 0.3706
vn -0.8382 0.3816 0.3897
vn -0.9777 0.1253 -0.1683
vn -0.5710 -0.8102 0.1320
vn -0.5707 -0.8016 -0.1783
vn 0.7807 -0.6184 0.0896
vn -0.2365 0.9714 0.0193
vn 0.5312 -0.6479 0.5460
vn -0.7317 0.4181 -0.5384
vn -0.3791 -0.7636 -0.5227
vn 0.6127 0.3715 0.6976
vn 0.9688 0.2060 0.1380
vn -0.2377 0.9189 -0.3149
vn 0.1774 0.1874 0.9661
vn 0.0684 0.9877 0.1404
vn -0.3131 0.3087 -0.8982
vn -0.9498 -0.0391 -0.3105
vn -0.2415 -0.7884 -0.5658
vn -0.4204 0.1364 -0.8970
vn 0.1081 -0.6807 0.7246
vn -0.6987 0.7095 -0.0918
vn 0.0907 -0.3453 -0.9341
vn -0.0132 -0.7133 0.7007
vn 0.1209 -0.8077 0.5771
vn -0.2601 -0.6902 0.6753
vn -0.5770 -0.5467 0.6068
usemtl None
s 1
f 88//1 6//2 7//3
f 19//4 89//5 10//6
f 111//7 94//8 11//9
f 115//10 6//2 88//1
f 72//11 17//12 121//13
f 120//14 15//15 8//16
f 72//11 20//17 21//18
f 122//19 91//20 20//17
f 116//21 18//22 115//10
f 25//23 23//24 120//14
f 79//25 91//20 122//19
f 105//26 28//27 93//28
f 87//29 18//22 116//21
f 10//6 29//30 110//31
f 123//32 91//20 79//25
f 8//16 9//33 87//29
f 121//13 17//12 25//23
f 50//34 36//35 4//36
f 51//37 32//38 50//34
f 44//39 31//40 3//41
f 51//37 54//42 32//38
f 47//43 35//44 44//39
f 5//45 33//46 34//47
f 39//48 31//40 33//46
f 32//38 36//35 50//34
f 31//40 36//35 34//47
f 35//44 36//35 31//40
f 32//38 34//47 36//35
f 37//49 39//48 5//45
f 38//50 39//48 37//49
f 43//51 3//41 42//52
f 43//51 44//39 3//41
f 45//53 44//39 43//51
f 46//54 44//39 45//53
f 49//55 4//36 48//56
f 52//57 54//42 51//37
f 106//58 14//59 28//27
f 11//9 27//60 26//61
f 7//3 100//62 24//63
f 26//61 27//60 69//64
f 110//31 29//30 14//59
f 24//63 100//62 111//7
f 69//64 89//5 19//4
f 103//65 93//28 12//66
f 100//62 15//15 12//66
f 15//15 18//22 9//33
f 95//67 90//68 96//69
f 95//67 97//70 98//71
f 17//12 98//71 99//72
f 97//70 91//20 92//73
f 21//18 101//74 102//75
f 20//17 90//68 101//74
f 97//70 92//73 99//72
f 107//76 30//77 108//78
f 26//61 69//64 117//79
f 11//9 117//79 111//7
f 113//80 112//81 22//82
f 7//3 113//80 88//1
f 116//21 22//82 87//29
f 118//83 78//84 117//79
f 8//16 119//85 120//14
f 25//23 62//86 121//13
f 61//87 58//88 65//89
f 59//90 68//91 70//92
f 72//11 68//91 122//19
f 67//93 66//94 22//82
f 19//4 118//83 69//64
f 108//78 73//95 110//31
f 69//64 118//83 117//79
f 112//81 113//80 64//96
f 81//97 64//96 113//80
f 60//98 1//99 103//65
f 74//100 114//101 75//102
f 68//91 72//11 70//92
f 114//101 111//7 75//102
f 123//32 1//99 60//98
f 78//84 75//102 117//79
f 71//103 103//65 125//104
f 80//105 78//84 118//83
f 80//105 82//106 83//107
f 80//105 118//83 82//106
f 82//106 73//95 86//108
f 76//109 13//110 30//77
f 22//82 116//21 115//10
f 76//109 30//77 84//111
f 124//112 71//103 125//104
f 87//29 63//113 119//85
f 79//25 58//88 123//32
f 10//6 82//106 19//4
f 122//19 68//91 79//25
f 22//82 66//94 87//29
f 104//114 30//77 105//26
f 117//79 75//102 111//7
f 103//65 71//103 104//114
f 110//31 73//95 10//6
f 77//115 108//78 13//110
f 111//7 114//101 24//63
f 62//86 25//23 120//14
f 98//71 17//12 95//67
f 17//12 102//75 101//74
f 1//99 37//49 5//45
f 58//88 38//50 37//49
f 112//81 46//54 45//53
f 63//113 43//51 42//52
f 62//86 41//116 40//117
f 65//89 39//48 38//50
f 67//93 45//53 43//51
f 56//118 42//52 41//116
f 59//90 40//117 39//48
f 73//95 52//57 51//37
f 75//102 49//55 48//56
f 78//84 4//36 49//55
f 80//105 50//34 4//36
f 84//111 55//119 54//42
f 86//108 51//37 50//34
f 47//43 74//100 48//56
f 77//115 53//120 52//57
f 124//112 5//45 55//119
f 76//109 54//42 53//120
f 46//54 81//97 47//43
f 131//121 126//122 127//123
f 132//124 126//122 131//121
f 128//125 134//126 129//127
f 135//128 130//129 129//127
f 139//130 134//126 133//131
f 134//126 140//132 135//128
f 135//128 141//133 136//134
f 136//134 142//135 132//124
f 143//136 138//137 142//135
f 144//138 139//130 138//137
f 145//139 140//132 139//130
f 140//132 147//140 141//133
f 141//133 147//140 142//135
f 144//138 148//141 145//139
f 149//142 143//136 147//140
f 149//142 150//143 144//138
f 151//144 147//140 146//145
f 148//141 151//144 146//145
f 151//144 152//146 147//140
f 151//144 154//147 159//148
f 156//149 157//150 155//151
f 153//152 152//146 156//149
f 159//148 156//149 152//146
f 150//143 156//149 155//151
f 153//152 156//149 150//143
f 159//148 152//146 151//144
f 148//141 158//153 151//144
f 151//144 158//153 154//147
f 150//143 155//151 158//153
f 150//143 158//153 148//141
f 8//16 15//15 9//33
f 111//7 100//62 94//8
f 123//32 60//98 12//66
f 72//11 16//154 17//12
f 115//10 18//22 6//2
f 72//11 21//18 16//154
f 16//154 21//18 102//75
f 102//75 17//12 16//154
f 120//14 23//24 15//15
f 72//11 122//19 20//17
f 103//65 104//114 93//28
f 87//29 9//33 18//22
f 10//6 89//5 29//30
f 25//23 17//12 23//24
f 123//32 12//66 91//20
f 3//41 31//40 2//155
f 44//39 35//44 31//40
f 5//45 39//48 33//46
f 47//43 36//35 35//44
f 54//42 5//45 34//47
f 39//48 2//155 31//40
f 4//36 36//35 47//43
f 32//38 54//42 34//47
f 33//46 31//40 34//47
f 40//117 2//155 39//48
f 40//117 41//116 2//155
f 41//116 3//41 2//155
f 42//52 3//41 41//116
f 46//54 47//43 44//39
f 48//56 4//36 47//43
f 52//57 53//120 54//42
f 55//119 5//45 54//42
f 106//58 107//76 14//59
f 60//98 103//65 12//66
f 11//9 94//8 27//60
f 105//26 106//58 28//27
f 7//3 6//2 100//62
f 104//114 105//26 93//28
f 69//64 27//60 89//5
f 107//76 110//31 14//59
f 29//30 89//5 94//8
f 91//20 12//66 92//73
f 93//28 28//27 12//66
f 14//59 29//30 28//27
f 29//30 94//8 100//62
f 100//62 6//2 15//15
f 6//2 18//22 15//15
f 92//73 12//66 15//15
f 12//66 28//27 29//30
f 12//66 29//30 100//62
f 23//24 92//73 15//15
f 27//60 94//8 89//5
f 95//67 17//12 90//68
f 90//68 91//20 96//69
f 95//67 96//69 97//70
f 98//71 97//70 99//72
f 97//70 96//69 91//20
f 17//12 92//73 23//24
f 99//72 92//73 17//12
f 21//18 20//17 101//74
f 20//17 91//20 90//68
f 90//68 17//12 101//74
f 85//156 109//157 62//86
f 57//158 56//118 85//156
f 104//114 71//103 30//77
f 120//14 85//156 62//86
f 68//91 65//89 79//25
f 79//25 65//89 58//88
f 66//94 63//113 87//29
f 121//13 62//86 70//92
f 114//101 81//97 113//80
f 123//32 58//88 1//99
f 103//65 1//99 125//104
f 70//92 72//11 121//13
f 119//85 57//158 85//156
f 85//156 120//14 119//85
f 30//77 107//76 106//58
f 108//78 110//31 107//76
f 86//108 83//107 82//106
f 24//63 113//80 7//3
f 84//111 30//77 71//103
f 119//85 63//113 57//158
f 19//4 82//106 118//83
f 117//79 11//9 26//61
f 108//78 77//115 73//95
f 88//1 113//80 22//82
f 30//77 106//58 105//26
f 22//82 115//10 88//1
f 87//29 119//85 8//16
f 10//6 73//95 82//106
f 13//110 108//78 30//77
f 24//63 114//101 113//80
f 56//118 57//158 42//52
f 67//93 22//82 45//53
f 1//99 58//88 37//49
f 59//90 70//92 40//117
f 22//82 112//81 45//53
f 58//88 61//87 38//50
f 70//92 62//86 40//117
f 57//158 63//113 42//52
f 112//81 64//96 46//54
f 38//50 61//87 65//89
f 62//86 109//157 41//116
f 63//113 66//94 43//51
f 66//94 67//93 43//51
f 65//89 68//91 39//48
f 109//157 85//156 41//116
f 85//156 56//118 41//116
f 68//91 59//90 39//48
f 125//104 1//99 5//45
f 71//103 124//112 55//119
f 74//100 75//102 48//56
f 75//102 78//84 49//55
f 78//84 80//105 4//36
f 46//54 64//96 81//97
f 80//105 83//107 50//34
f 84//111 71//103 55//119
f 86//108 73//95 51//37
f 47//43 114//101 74//100
f 73//95 77//115 52//57
f 77//115 13//110 53//120
f 83//107 86//108 50//34
f 13//110 76//109 53//120
f 76//109 84//111 54//42
f 81//97 114//101 47//43
f 5//45 124//112 125//104
f 132//124 133//131 126//122
f 126//122 133//131 128//125
f 130//129 136//134 131//121
f 131//121 136//134 132//124
f 128//125 133//131 134//126
f 129//127 134//126 135//128
f 135//128 136//134 130//129
f 132//124 137//159 133//131
f 137//159 138//137 133//131
f 138//137 139//130 133//131
f 139//130 140//132 134//126
f 135//128 140//132 141//133
f 136//134 141//133 142//135
f 132//124 142//135 137//159
f 142//135 138//137 137//159
f 143//136 144//138 138//137
f 144//138 145//139 139//130
f 145//139 146//145 140//132
f 140//132 146//145 147//140
f 142//135 147//140 143//136
f 143//136 149//142 144//138
f 145//139 148//141 146//145
f 147//140 152//146 149//142
f 149//142 153//152 150//143
f 144//138 150//143 148//141
f 152//146 153//152 149//142
