####
#
# OBJ File Generated by Meshlab
#
####
# Object Mug_2_very_low.obj
#
# Vertices: 74
# Faces: 118
#
####
vn -0.007117 -0.013316 -0.999886
v 0.087466 0.041341 0.126369
vn -0.145067 0.854755 -0.498346
v -0.188991 0.993105 0.018071
vn 0.242809 0.315089 0.917476
v 0.243377 0.971204 1.988265
vn 0.845701 0.255652 -0.468435
v 0.995087 0.192705 0.016602
vn 0.762945 -0.252826 -0.594974
v 0.958447 -0.340465 0.016992
vn 0.487063 -0.485974 -0.725671
v 0.699294 -0.720308 0.044797
vn 0.300535 -0.905447 -0.299741
v 0.342550 -0.942589 0.037114
vn -0.645530 -0.749305 -0.147762
v -0.626878 -0.794410 0.207558
vn -0.606740 -0.321112 -0.727154
v -0.984979 -0.326444 0.016639
vn -0.796234 0.188705 -0.574806
v -0.969773 0.275587 0.017537
vn -0.563687 0.575321 -0.592674
v -0.738204 0.692908 0.020498
vn 0.934230 -0.185796 0.304456
v -0.874079 0.218907 0.196092
vn 0.762025 0.119232 0.636477
v -0.892494 -0.145122 0.167981
vn 0.541483 0.783990 0.303573
v -0.614678 -0.668625 0.168043
vn 0.123741 0.987773 0.094831
v -0.044935 -0.904293 1.061069
vn -0.907448 0.199754 0.369644
v 0.824965 -0.370127 0.173199
vn -0.988733 -0.076618 0.128595
v 0.904327 -0.044359 1.582950
vn -0.627273 -0.226187 0.745230
v 0.828128 0.358826 0.167958
vn -0.486654 -0.812490 0.320981
v 0.465885 0.777307 0.167976
vn 0.052990 -0.579573 0.813195
v -0.200329 0.883361 0.167959
vn 0.196452 -0.920604 0.337485
v -0.249779 0.885927 1.896477
vn 0.595092 -0.750593 0.287187
v -0.536686 0.722883 0.167978
vn 0.457462 0.647530 -0.609453
v 0.630440 0.797575 0.021157
vn 0.850820 -0.424153 0.310160
v -0.699949 0.575282 1.952836
vn 0.617643 -0.278904 0.735343
v -0.798359 0.422485 0.167959
vn 0.991445 -0.121455 0.047813
v -0.902387 0.015493 1.892177
vn 0.891089 -0.057842 0.450127
v 1.011988 -0.000445 1.984243
vn 0.844548 0.485004 0.226959
v -0.815284 -0.392849 1.890819
vn 0.560202 0.444554 0.698960
v -0.426200 -0.913476 2.013987
vn 0.564518 0.823052 0.062491
v -0.472457 -0.782893 1.295022
vn -0.104214 0.962113 0.251948
v 0.514471 -0.858878 2.023080
vn -0.066905 0.477427 0.876120
v 0.287275 -0.857364 0.167959
vn -0.924559 0.054149 0.377172
v 0.909752 -0.429321 2.005110
vn -0.566462 0.580378 0.585049
v 0.610340 -0.673557 0.168641
vn -0.907813 -0.346551 0.236174
v 0.867947 0.247427 2.010648
vn -0.445946 -0.302844 0.842269
v -0.955932 -0.338762 2.010240
vn -0.835163 -0.542468 0.090730
v 0.655919 0.626688 0.359958
vn -0.157375 -0.884670 0.438854
v 0.814666 0.586060 2.010865
vn -0.214431 -0.966232 0.142882
v 0.201363 0.881474 1.724938
vn -0.663341 -0.177861 0.726873
v -0.041961 -1.001111 1.953094
vn -0.043086 0.408023 0.911954
v -0.197888 1.003658 1.983901
vn 0.203656 -0.968222 0.145157
v 0.242706 -0.971257 2.125147
vn 0.086887 -0.994494 -0.058588
v 0.065645 -1.000368 0.169336
vn -0.168334 -0.738898 -0.652452
v -0.173152 -0.987631 0.020566
vn -0.668318 0.352103 0.655267
v -0.796328 0.613240 1.990736
vn 0.077701 0.088663 0.993026
v -0.597038 0.803698 2.001148
vn 0.007932 -0.344623 -0.938708
v -0.058010 -0.950586 0.301073
vn 0.491772 -0.200560 -0.847311
v -0.000683 -0.951662 0.317099
vn 0.855531 -0.072295 -0.512679
v 0.041283 -0.954745 0.358869
vn 0.999836 0.007289 0.016597
v 0.056644 -0.959310 0.411096
vn 0.811541 0.012021 0.584171
v 0.041283 -0.964277 0.457816
vn 0.433381 0.005228 0.901196
v -0.000683 -0.968113 0.489279
vn 0.001603 0.100027 0.994983
v -0.058010 -0.969518 0.500776
vn -0.397732 0.142636 0.906346
v -0.115338 -0.968113 0.489279
vn -0.804110 0.104038 0.585306
v -0.157304 -0.964277 0.457816
vn -0.999453 -0.029658 0.014621
v -0.172665 -0.959310 0.411097
vn -0.655104 -0.342143 -0.673629
v -0.157304 -0.954745 0.358869
vn -0.429801 -0.454604 -0.780132
v -0.115338 -0.951662 0.317099
vn -0.001156 -0.287600 0.957750
v -0.058010 -0.925088 1.781850
vn 0.478678 -0.297895 0.825909
v -0.000683 -0.926279 1.765510
vn 0.819018 -0.288715 0.495836
v 0.041283 -0.929396 1.722762
vn 0.965589 -0.260017 0.005355
v 0.056644 -0.933315 1.669011
vn 0.823546 -0.202404 -0.529909
v 0.041283 -0.936938 1.619315
vn 0.445793 -0.139811 -0.884150
v -0.000683 -0.940606 1.583692
vn 0.000155 -0.101614 -0.994824
v -0.058010 -0.942754 1.571050
vn -0.446549 -0.096589 -0.889530
v -0.115338 -0.940606 1.583692
vn -0.832274 -0.123609 -0.540408
v -0.157304 -0.936938 1.619315
vn -0.985505 -0.169647 -0.000379
v -0.172665 -0.933315 1.669011
vn -0.838403 -0.213958 0.501302
v -0.157304 -0.929396 1.722762
vn -0.487611 -0.255241 0.834918
v -0.115338 -0.926279 1.765510
vn -0.022445 -0.995816 -0.088584
v -0.083132 -1.453324 1.623197
vn 0.000000 0.000000 0.000000
v 0.057099 -1.587192 0.912289
vn -0.631808 -0.025796 0.774696
v -0.155199 -1.478375 0.552089
vn 0.705304 -0.404773 -0.581984
v 0.058843 -1.328831 0.440924
# 74 vertices, 0 vertices normals

f 2//2 1//1 11//11
f 38//38 19//19 37//37
f 10//10 1//1 9//9
f 11//11 1//1 10//10
f 3//3 23//23 2//2
f 8//8 9//9 44//44
f 32//32 18//18 20//20
f 36//36 10//10 9//9
f 20//20 19//19 39//39
f 32//32 14//14 15//15
f 14//14 13//13 28//28
f 24//24 25//25 22//22
f 18//18 17//17 35//35
f 30//30 15//15 14//14
f 24//24 46//46 45//45
f 24//24 45//45 36//36
f 28//28 36//36 29//29
f 31//31 6//6 33//33
f 30//30 29//29 15//15
f 31//31 40//40 42//42
f 29//29 36//36 8//8
f 17//17 33//33 27//27
f 41//41 21//21 3//3
f 38//38 35//35 4//4
f 46//46 24//24 22//22
f 26//26 25//25 24//24
f 26//26 28//28 13//13
f 28//28 30//30 14//14
f 29//29 30//30 28//28
f 33//33 16//16 34//34
f 33//33 17//17 16//16
f 35//35 37//37 18//18
f 40//40 31//31 15//15
f 31//31 34//34 32//32
f 45//45 11//11 10//10
f 43//43 40//40 44//44
f 45//45 46//46 11//11
f 46//46 2//2 11//11
f 29//29 8//8 44//44
f 31//31 7//7 6//6
f 33//33 6//6 5//5
f 42//42 43//43 7//7
f 38//38 4//4 23//23
f 41//41 3//3 2//2
f 27//27 33//33 5//5
f 71//71 60//60 59//59
f 71//71 61//61 60//60
f 71//71 62//62 61//61
f 62//62 71//71 63//63
f 63//63 71//71 64//64
f 64//64 71//71 65//65
f 71//71 66//66 65//65
f 71//71 67//67 66//66
f 71//71 68//68 67//67
f 68//68 71//71 69//69
f 69//69 71//71 70//70
f 70//70 71//71 59//59
f 72//72 73//73 71//71
f 52//52 73//73 74//74
f 57//57 74//74 73//73
f 4//4 5//5 1//1
f 6//6 1//1 5//5
f 6//6 44//44 1//1
f 38//38 39//39 19//19
f 23//23 4//4 1//1
f 44//44 9//9 1//1
f 7//7 44//44 6//6
f 43//43 44//44 7//7
f 2//2 23//23 1//1
f 25//25 13//13 32//32
f 13//13 14//14 32//32
f 32//32 34//34 18//18
f 34//34 16//16 18//18
f 19//19 20//20 18//18
f 20//20 22//22 25//25
f 20//20 25//25 32//32
f 39//39 21//21 20//20
f 20//20 21//21 22//22
f 26//26 13//13 12//12
f 12//12 13//13 25//25
f 17//17 18//18 16//16
f 37//37 19//19 18//18
f 21//21 41//41 46//46
f 23//23 3//3 38//38
f 26//26 24//24 36//36
f 28//28 26//26 36//36
f 34//34 31//31 33//33
f 27//27 35//35 17//17
f 39//39 38//38 3//3
f 3//3 21//21 39//39
f 27//27 4//4 35//35
f 15//15 29//29 40//40
f 42//42 7//7 31//31
f 46//46 22//22 21//21
f 26//26 12//12 25//25
f 45//45 10//10 36//36
f 35//35 38//38 37//37
f 31//31 32//32 15//15
f 42//42 40//40 43//43
f 44//44 40//40 29//29
f 46//46 41//41 2//2
f 8//8 36//36 9//9
f 4//4 27//27 5//5
f 73//73 72//72 71//71
f 72//72 74//74 73//73
f 72//72 73//73 74//74
f 74//74 47//47 48//48
f 74//74 48//48 49//49
f 74//74 49//49 50//50
f 74//74 50//50 51//51
f 51//51 52//52 74//74
f 52//52 53//53 73//73
f 73//73 53//53 54//54
f 73//73 54//54 55//55
f 55//55 56//56 73//73
f 56//56 57//57 73//73
f 57//57 58//58 74//74
f 58//58 47//47 74//74
# 118 faces, 0 coords texture

# End of File
